# MagicaVoxel @ Ephtracy

# group
o 

# material
mtllib Character-1.mtl
usemtl palette

# normals
vn 1 0 0
vn -1 0 0
vn 0 0 1
vn 0 0 -1
vn 0 -1 0
vn 0 1 0

# texcoords
vt 0.0527344 0.5
vt 0.978516 0.5
vt 0.986328 0.5

# verts
v -0.6 2.8 0.1
v -0.6 2.8 -0.1
v -0.6 2.9 0.1
v -0.6 2.9 -0.1
v -0.6 3 0.1
v -0.6 3 -0.1
v -0.7 2.4 0.1
v -0.7 2.4 -0.1
v -0.7 2.8 0.2
v -0.7 2.8 0.1
v -0.7 2.8 -0.1
v -0.7 2.8 -0.2
v -0.7 2.9 0.2
v -0.7 2.9 0.1
v -0.7 2.9 -0.1
v -0.7 2.9 -0.2
v -0.7 3 0.2
v -0.7 3 0.1
v -0.7 3 -0.1
v -0.7 3 -0.2
v -0.7 3.2 0.1
v -0.7 3.2 -0.1
v -0.8 2.5 0.2
v -0.8 2.5 0.1
v -0.8 2.5 -0.1
v -0.8 2.5 -0.2
v -0.8 2.8 0.2
v -0.8 2.8 0.1
v -0.8 2.8 -0.1
v -0.8 2.8 -0.2
v -0.9 2.4 0.1
v -0.9 2.4 -0.1
v -0.9 2.5 0.2
v -0.9 2.5 0.1
v -0.9 2.5 -0.1
v -0.9 2.5 -0.2
v -0.9 2.8 0.2
v -0.9 2.8 0.1
v -0.9 2.8 -0.1
v -0.9 2.8 -0.2
v -0.9 2.9 0.2
v -0.9 2.9 0.1
v -0.9 2.9 -0.1
v -0.9 2.9 -0.2
v -0.9 3 0.2
v -0.9 3 0.1
v -0.9 3 -0.1
v -0.9 3 -0.2
v -0.9 3.2 0.1
v -0.9 3.2 -0.1
v -1 2.5 0.1
v -1 2.5 -0.1
v -1 2.8 0.1
v -1 2.8 -0.1
v -1 2.9 0.1
v -1 2.9 -0.1
v -1 3 0.1
v -1 3 -0.1
v -0.7 2.8 0.2
v -0.7 2.9 0.2
v -0.7 3 0.2
v -0.8 2.5 0.2
v -0.8 2.8 0.2
v -0.9 2.5 0.2
v -0.9 2.8 0.2
v -0.9 2.9 0.2
v -0.9 3 0.2
v -0.6 2.8 0.1
v -0.6 2.9 0.1
v -0.6 3 0.1
v -0.7 2.4 0.1
v -0.7 2.8 0.1
v -0.7 2.9 0.1
v -0.7 3 0.1
v -0.7 3.2 0.1
v -0.8 2.5 0.1
v -0.8 2.8 0.1
v -0.9 2.4 0.1
v -0.9 2.5 0.1
v -0.9 2.8 0.1
v -0.9 2.9 0.1
v -0.9 3 0.1
v -0.9 3.2 0.1
v -1 2.5 0.1
v -1 2.8 0.1
v -1 2.9 0.1
v -1 3 0.1
v -0.6 2.8 -0.1
v -0.6 2.9 -0.1
v -0.6 3 -0.1
v -0.7 2.4 -0.1
v -0.7 2.8 -0.1
v -0.7 2.9 -0.1
v -0.7 3 -0.1
v -0.7 3.2 -0.1
v -0.8 2.5 -0.1
v -0.8 2.8 -0.1
v -0.9 2.4 -0.1
v -0.9 2.5 -0.1
v -0.9 2.8 -0.1
v -0.9 2.9 -0.1
v -0.9 3 -0.1
v -0.9 3.2 -0.1
v -1 2.5 -0.1
v -1 2.8 -0.1
v -1 2.9 -0.1
v -1 3 -0.1
v -0.7 2.8 -0.2
v -0.7 2.9 -0.2
v -0.7 3 -0.2
v -0.8 2.5 -0.2
v -0.8 2.8 -0.2
v -0.9 2.5 -0.2
v -0.9 2.8 -0.2
v -0.9 2.9 -0.2
v -0.9 3 -0.2
v -0.7 2.4 0.1
v -0.9 2.4 0.1
v -0.7 2.4 -0.1
v -0.9 2.4 -0.1
v -0.8 2.5 0.2
v -0.9 2.5 0.2
v -0.8 2.5 0.1
v -0.9 2.5 0.1
v -1 2.5 0.1
v -0.8 2.5 -0.1
v -0.9 2.5 -0.1
v -1 2.5 -0.1
v -0.8 2.5 -0.2
v -0.9 2.5 -0.2
v -0.7 2.8 0.2
v -0.8 2.8 0.2
v -0.6 2.8 0.1
v -0.7 2.8 0.1
v -0.8 2.8 0.1
v -0.6 2.8 -0.1
v -0.7 2.8 -0.1
v -0.8 2.8 -0.1
v -0.7 2.8 -0.2
v -0.8 2.8 -0.2
v -0.7 3 0.2
v -0.9 3 0.2
v -0.6 3 0.1
v -0.7 3 0.1
v -0.9 3 0.1
v -1 3 0.1
v -0.6 3 -0.1
v -0.7 3 -0.1
v -0.9 3 -0.1
v -1 3 -0.1
v -0.7 3 -0.2
v -0.9 3 -0.2
v -0.7 3.2 0.1
v -0.9 3.2 0.1
v -0.7 3.2 -0.1
v -0.9 3.2 -0.1

# faces
f 1/3/1 2/3/1 3/3/1
f 3/3/1 2/3/1 4/3/1
f 3/2/1 4/2/1 5/2/1
f 5/2/1 4/2/1 6/2/1
f 7/1/1 8/1/1 10/1/1
f 10/1/1 8/1/1 11/1/1
f 9/3/1 10/3/1 13/3/1
f 13/3/1 10/3/1 14/3/1
f 11/3/1 12/3/1 15/3/1
f 15/3/1 12/3/1 16/3/1
f 13/2/1 14/2/1 17/2/1
f 17/2/1 14/2/1 18/2/1
f 15/2/1 16/2/1 19/2/1
f 19/2/1 16/2/1 20/2/1
f 18/1/1 19/1/1 21/1/1
f 21/1/1 19/1/1 22/1/1
f 23/2/1 24/2/1 27/2/1
f 27/2/1 24/2/1 28/2/1
f 25/2/1 26/2/1 29/2/1
f 29/2/1 26/2/1 30/2/1
f 34/1/2 32/1/2 31/1/2
f 35/1/2 32/1/2 34/1/2
f 37/2/2 34/2/2 33/2/2
f 38/2/2 34/2/2 37/2/2
f 39/2/2 36/2/2 35/2/2
f 40/2/2 36/2/2 39/2/2
f 41/3/2 38/3/2 37/3/2
f 42/3/2 38/3/2 41/3/2
f 43/3/2 40/3/2 39/3/2
f 44/3/2 40/3/2 43/3/2
f 45/2/2 42/2/2 41/2/2
f 46/2/2 42/2/2 45/2/2
f 47/2/2 44/2/2 43/2/2
f 48/2/2 44/2/2 47/2/2
f 49/1/2 47/1/2 46/1/2
f 50/1/2 47/1/2 49/1/2
f 53/2/2 52/2/2 51/2/2
f 54/2/2 52/2/2 53/2/2
f 55/3/2 54/3/2 53/3/2
f 56/3/2 54/3/2 55/3/2
f 57/2/2 56/2/2 55/2/2
f 58/2/2 56/2/2 57/2/2
f 59/3/3 60/3/3 63/3/3
f 62/2/3 63/2/3 64/2/3
f 63/3/3 60/3/3 65/3/3
f 64/2/3 63/2/3 65/2/3
f 60/2/3 61/2/3 66/2/3
f 65/3/3 60/3/3 66/3/3
f 66/2/3 61/2/3 67/2/3
f 68/3/3 69/3/3 72/3/3
f 69/2/3 70/2/3 73/2/3
f 72/3/3 69/3/3 73/3/3
f 73/2/3 70/2/3 74/2/3
f 71/1/3 72/1/3 76/1/3
f 76/1/3 72/1/3 77/1/3
f 71/1/3 76/1/3 78/1/3
f 78/1/3 76/1/3 79/1/3
f 74/1/3 75/1/3 82/1/3
f 82/1/3 75/1/3 83/1/3
f 79/2/3 80/2/3 84/2/3
f 80/3/3 81/3/3 85/3/3
f 84/2/3 80/2/3 85/2/3
f 81/2/3 82/2/3 86/2/3
f 85/3/3 81/3/3 86/3/3
f 86/2/3 82/2/3 87/2/3
f 92/3/4 89/3/4 88/3/4
f 93/2/4 90/2/4 89/2/4
f 93/3/4 89/3/4 92/3/4
f 94/2/4 90/2/4 93/2/4
f 96/1/4 92/1/4 91/1/4
f 97/1/4 92/1/4 96/1/4
f 98/1/4 96/1/4 91/1/4
f 99/1/4 96/1/4 98/1/4
f 102/1/4 95/1/4 94/1/4
f 103/1/4 95/1/4 102/1/4
f 104/2/4 100/2/4 99/2/4
f 105/3/4 101/3/4 100/3/4
f 105/2/4 100/2/4 104/2/4
f 106/2/4 102/2/4 101/2/4
f 106/3/4 101/3/4 105/3/4
f 107/2/4 102/2/4 106/2/4
f 112/3/4 109/3/4 108/3/4
f 113/2/4 112/2/4 111/2/4
f 114/3/4 109/3/4 112/3/4
f 114/2/4 112/2/4 113/2/4
f 115/2/4 110/2/4 109/2/4
f 115/3/4 109/3/4 114/3/4
f 116/2/4 110/2/4 115/2/4
f 117/1/5 118/1/5 119/1/5
f 119/1/5 118/1/5 120/1/5
f 121/2/5 122/2/5 123/2/5
f 123/2/5 122/2/5 124/2/5
f 124/2/5 125/2/5 127/2/5
f 127/2/5 125/2/5 128/2/5
f 126/2/5 127/2/5 129/2/5
f 129/2/5 127/2/5 130/2/5
f 131/3/5 132/3/5 134/3/5
f 134/3/5 132/3/5 135/3/5
f 133/3/5 134/3/5 136/3/5
f 136/3/5 134/3/5 137/3/5
f 137/3/5 138/3/5 139/3/5
f 139/3/5 138/3/5 140/3/5
f 144/2/6 142/2/6 141/2/6
f 145/2/6 142/2/6 144/2/6
f 147/2/6 144/2/6 143/2/6
f 148/2/6 144/2/6 147/2/6
f 149/2/6 146/2/6 145/2/6
f 150/2/6 146/2/6 149/2/6
f 151/2/6 149/2/6 148/2/6
f 152/2/6 149/2/6 151/2/6
f 155/1/6 154/1/6 153/1/6
f 156/1/6 154/1/6 155/1/6
