# MagicaVoxel @ Ephtracy

# group
o 

# material
mtllib Character-7.mtl
usemtl palette

# normals
vn 1 0 0
vn -1 0 0
vn 0 0 1
vn 0 0 -1
vn 0 -1 0
vn 0 1 0

# texcoords
vt 0.00976563 0.5
vt 0.0527344 0.5
vt 0.986328 0.5

# verts
v -0.1 0.6 0
v -0.1 0.6 -0.2
v -0.1 0.8 0.1
v -0.1 0.8 0
v -0.1 1 0.2
v -0.1 1 0.1
v -0.1 1.1 -0.1
v -0.1 1.1 -0.2
v -0.1 1.2 0.3
v -0.1 1.2 0.2
v -0.1 1.3 0
v -0.1 1.3 -0.1
v -0.1 1.4 0.2
v -0.1 1.4 0
v -0.1 1.4 -0.1
v -0.1 1.5 0.3
v -0.1 1.5 0.2
v -0.1 1.5 0
v -0.1 1.5 -0.1
v -0.1 1.6 0.3
v -0.1 1.6 0.2
v -0.1 1.6 0
v -0.1 1.7 0.3
v -0.1 1.7 0.2
v -0.2 0.4 0
v -0.2 0.4 -0.2
v -0.2 0.6 0.1
v -0.2 0.6 0
v -0.2 0.6 -0.2
v -0.2 0.6 -0.3
v -0.2 0.8 0.2
v -0.2 0.8 0.1
v -0.2 0.8 0
v -0.2 1 0.3
v -0.2 1 0.2
v -0.2 1 0.1
v -0.2 1.1 0.4
v -0.2 1.1 0.3
v -0.2 1.1 -0.1
v -0.2 1.1 -0.2
v -0.2 1.1 -0.3
v -0.2 1.2 0.3
v -0.2 1.2 0.2
v -0.2 1.3 0
v -0.2 1.3 -0.1
v -0.2 1.3 -0.2
v -0.2 1.4 0
v -0.2 1.4 -0.1
v -0.2 1.4 -0.2
v -0.2 1.5 0.3
v -0.2 1.5 -0.1
v -0.2 1.5 -0.2
v -0.2 1.6 0.4
v -0.2 1.6 0.3
v -0.2 1.7 0.4
v -0.2 1.7 0.3
v -0.2 1.8 0.4
v -0.2 1.8 0.3
v -0.4 0.4 0
v -0.4 0.4 -0.2
v -0.4 0.6 0.1
v -0.4 0.6 0
v -0.4 0.6 -0.2
v -0.4 0.6 -0.3
v -0.4 0.8 0.2
v -0.4 0.8 0.1
v -0.4 0.8 0
v -0.4 1 0.3
v -0.4 1 0.2
v -0.4 1 0.1
v -0.4 1.1 0.4
v -0.4 1.1 0.3
v -0.4 1.1 -0.1
v -0.4 1.1 -0.2
v -0.4 1.1 -0.3
v -0.4 1.2 0.3
v -0.4 1.2 0.2
v -0.4 1.3 0
v -0.4 1.3 -0.1
v -0.4 1.3 -0.2
v -0.4 1.4 0
v -0.4 1.4 -0.1
v -0.4 1.4 -0.2
v -0.4 1.5 0.3
v -0.4 1.5 -0.1
v -0.4 1.5 -0.2
v -0.4 1.6 0.4
v -0.4 1.6 0.3
v -0.4 1.7 0.4
v -0.4 1.7 0.3
v -0.4 1.8 0.4
v -0.4 1.8 0.3
v -0.5 0.6 0
v -0.5 0.6 -0.2
v -0.5 0.8 0.1
v -0.5 0.8 0
v -0.5 1 0.2
v -0.5 1 0.1
v -0.5 1.1 -0.1
v -0.5 1.1 -0.2
v -0.5 1.2 0.3
v -0.5 1.2 0.2
v -0.5 1.3 0.2
v -0.5 1.3 0
v -0.5 1.3 -0.1
v -0.5 1.4 0.2
v -0.5 1.5 0.3
v -0.5 1.5 0.2
v -0.5 1.6 0.3
v -0.5 1.6 0.2
v -0.5 1.7 0.3
v -0.5 1.7 0.2
v -0.6 1.3 0.2
v -0.6 1.3 0
v -0.6 1.4 0.2
v -0.6 1.4 0
v -0.6 1.4 -0.1
v -0.6 1.5 0.2
v -0.6 1.5 0
v -0.6 1.5 -0.1
v -0.6 1.6 0.2
v -0.6 1.6 0
v -0.2 1.1 0.4
v -0.2 1.6 0.4
v -0.2 1.7 0.4
v -0.2 1.8 0.4
v -0.4 1.1 0.4
v -0.4 1.6 0.4
v -0.4 1.7 0.4
v -0.4 1.8 0.4
v -0.1 1.2 0.3
v -0.1 1.5 0.3
v -0.1 1.6 0.3
v -0.1 1.7 0.3
v -0.2 1 0.3
v -0.2 1.1 0.3
v -0.2 1.2 0.3
v -0.2 1.5 0.3
v -0.2 1.6 0.3
v -0.2 1.7 0.3
v -0.4 1 0.3
v -0.4 1.1 0.3
v -0.4 1.2 0.3
v -0.4 1.5 0.3
v -0.4 1.6 0.3
v -0.4 1.7 0.3
v -0.5 1.2 0.3
v -0.5 1.5 0.3
v -0.5 1.6 0.3
v -0.5 1.7 0.3
v -0.1 1 0.2
v -0.1 1.2 0.2
v -0.2 0.8 0.2
v -0.2 1 0.2
v -0.2 1.2 0.2
v -0.4 0.8 0.2
v -0.4 1 0.2
v -0.4 1.2 0.2
v -0.5 1 0.2
v -0.5 1.2 0.2
v -0.5 1.3 0.2
v -0.5 1.4 0.2
v -0.5 1.5 0.2
v -0.5 1.6 0.2
v -0.6 1.3 0.2
v -0.6 1.4 0.2
v -0.6 1.5 0.2
v -0.6 1.6 0.2
v -0.1 0.8 0.1
v -0.1 1 0.1
v -0.2 0.6 0.1
v -0.2 0.8 0.1
v -0.2 1 0.1
v -0.4 0.6 0.1
v -0.4 0.8 0.1
v -0.4 1 0.1
v -0.5 0.8 0.1
v -0.5 1 0.1
v -0.1 0.6 0
v -0.1 0.8 0
v -0.2 0.4 0
v -0.2 0.6 0
v -0.2 0.8 0
v -0.4 0.4 0
v -0.4 0.6 0
v -0.4 0.8 0
v -0.5 0.6 0
v -0.5 0.8 0
v -0.2 1.7 0.3
v -0.2 1.8 0.3
v -0.4 1.7 0.3
v -0.4 1.8 0.3
v -0.1 1.6 0.2
v -0.1 1.7 0.2
v -0.2 1.6 0.2
v -0.2 1.7 0.2
v -0.4 1.6 0.2
v -0.4 1.7 0.2
v -0.5 1.6 0.2
v -0.5 1.7 0.2
v -0.1 1.3 0
v -0.1 1.4 0
v -0.1 1.5 0
v -0.1 1.6 0
v -0.2 1.3 0
v -0.2 1.4 0
v -0.2 1.5 0
v -0.4 1.3 0
v -0.4 1.4 0
v -0.4 1.5 0
v -0.5 1.3 0
v -0.5 1.4 0
v -0.5 1.5 0
v -0.5 1.6 0
v -0.6 1.3 0
v -0.6 1.4 0
v -0.6 1.5 0
v -0.6 1.6 0
v -0.1 1.1 -0.1
v -0.1 1.3 -0.1
v -0.1 1.4 -0.1
v -0.1 1.5 -0.1
v -0.2 1.1 -0.1
v -0.2 1.3 -0.1
v -0.2 1.4 -0.1
v -0.2 1.5 -0.1
v -0.4 1.1 -0.1
v -0.4 1.3 -0.1
v -0.4 1.4 -0.1
v -0.4 1.5 -0.1
v -0.5 1.1 -0.1
v -0.5 1.3 -0.1
v -0.6 1.4 -0.1
v -0.6 1.5 -0.1
v -0.1 0.6 -0.2
v -0.1 1.1 -0.2
v -0.2 0.4 -0.2
v -0.2 0.6 -0.2
v -0.2 1.1 -0.2
v -0.2 1.3 -0.2
v -0.2 1.4 -0.2
v -0.2 1.5 -0.2
v -0.4 0.4 -0.2
v -0.4 0.6 -0.2
v -0.4 1.1 -0.2
v -0.4 1.3 -0.2
v -0.4 1.4 -0.2
v -0.4 1.5 -0.2
v -0.5 0.6 -0.2
v -0.5 1.1 -0.2
v -0.2 0.6 -0.3
v -0.2 1.1 -0.3
v -0.4 0.6 -0.3
v -0.4 1.1 -0.3
v -0.2 0.4 0
v -0.4 0.4 0
v -0.2 0.4 -0.2
v -0.4 0.4 -0.2
v -0.2 0.6 0.1
v -0.4 0.6 0.1
v -0.1 0.6 0
v -0.2 0.6 0
v -0.4 0.6 0
v -0.5 0.6 0
v -0.1 0.6 -0.2
v -0.2 0.6 -0.2
v -0.4 0.6 -0.2
v -0.5 0.6 -0.2
v -0.2 0.6 -0.3
v -0.4 0.6 -0.3
v -0.2 0.8 0.2
v -0.4 0.8 0.2
v -0.1 0.8 0.1
v -0.2 0.8 0.1
v -0.4 0.8 0.1
v -0.5 0.8 0.1
v -0.1 0.8 0
v -0.2 0.8 0
v -0.4 0.8 0
v -0.5 0.8 0
v -0.2 1 0.3
v -0.4 1 0.3
v -0.1 1 0.2
v -0.2 1 0.2
v -0.4 1 0.2
v -0.5 1 0.2
v -0.1 1 0.1
v -0.2 1 0.1
v -0.4 1 0.1
v -0.5 1 0.1
v -0.2 1.1 0.4
v -0.4 1.1 0.4
v -0.2 1.1 0.3
v -0.4 1.1 0.3
v -0.1 1.2 0.3
v -0.2 1.2 0.3
v -0.4 1.2 0.3
v -0.5 1.2 0.3
v -0.1 1.2 0.2
v -0.2 1.2 0.2
v -0.4 1.2 0.2
v -0.5 1.2 0.2
v -0.5 1.3 0.2
v -0.6 1.3 0.2
v -0.5 1.3 0
v -0.6 1.3 0
v -0.1 1.4 0
v -0.2 1.4 0
v -0.4 1.4 0
v -0.5 1.4 0
v -0.6 1.4 0
v -0.1 1.4 -0.1
v -0.2 1.4 -0.1
v -0.4 1.4 -0.1
v -0.6 1.4 -0.1
v -0.2 1.4 -0.2
v -0.4 1.4 -0.2
v -0.1 1.1 -0.1
v -0.2 1.1 -0.1
v -0.4 1.1 -0.1
v -0.5 1.1 -0.1
v -0.1 1.1 -0.2
v -0.2 1.1 -0.2
v -0.4 1.1 -0.2
v -0.5 1.1 -0.2
v -0.2 1.1 -0.3
v -0.4 1.1 -0.3
v -0.1 1.3 0
v -0.2 1.3 0
v -0.4 1.3 0
v -0.5 1.3 0
v -0.1 1.3 -0.1
v -0.2 1.3 -0.1
v -0.4 1.3 -0.1
v -0.5 1.3 -0.1
v -0.2 1.3 -0.2
v -0.4 1.3 -0.2
v -0.1 1.5 0
v -0.2 1.5 0
v -0.4 1.5 0
v -0.5 1.5 0
v -0.6 1.5 0
v -0.1 1.5 -0.1
v -0.2 1.5 -0.1
v -0.4 1.5 -0.1
v -0.6 1.5 -0.1
v -0.2 1.5 -0.2
v -0.4 1.5 -0.2
v -0.1 1.6 0.2
v -0.2 1.6 0.2
v -0.4 1.6 0.2
v -0.5 1.6 0.2
v -0.6 1.6 0.2
v -0.1 1.6 0
v -0.5 1.6 0
v -0.6 1.6 0
v -0.1 1.7 0.3
v -0.2 1.7 0.3
v -0.4 1.7 0.3
v -0.5 1.7 0.3
v -0.1 1.7 0.2
v -0.2 1.7 0.2
v -0.4 1.7 0.2
v -0.5 1.7 0.2
v -0.2 1.8 0.4
v -0.4 1.8 0.4
v -0.2 1.8 0.3
v -0.4 1.8 0.3

# faces
f 1/2/1 2/2/1 4/2/1
f 3/2/1 4/2/1 6/2/1
f 4/2/1 2/2/1 7/2/1
f 5/2/1 6/2/1 7/2/1
f 6/2/1 4/2/1 7/2/1
f 7/2/1 2/2/1 8/2/1
f 5/2/1 7/2/1 10/2/1
f 10/2/1 7/2/1 11/2/1
f 11/2/1 7/2/1 12/2/1
f 9/1/1 10/1/1 13/1/1
f 10/2/1 11/2/1 13/2/1
f 13/2/1 11/2/1 14/2/1
f 9/1/1 13/1/1 16/1/1
f 14/3/1 15/3/1 17/3/1
f 16/1/1 13/1/1 17/1/1
f 13/3/1 14/3/1 17/3/1
f 17/3/1 15/3/1 18/3/1
f 18/3/1 15/3/1 19/3/1
f 16/3/1 17/3/1 20/3/1
f 17/2/1 18/2/1 21/2/1
f 20/3/1 17/3/1 21/3/1
f 21/2/1 18/2/1 22/2/1
f 20/1/1 21/1/1 23/1/1
f 23/1/1 21/1/1 24/1/1
f 25/2/1 26/2/1 28/2/1
f 28/2/1 26/2/1 29/2/1
f 27/2/1 28/2/1 32/2/1
f 32/2/1 28/2/1 33/2/1
f 31/2/1 32/2/1 35/2/1
f 35/2/1 32/2/1 36/2/1
f 34/2/1 35/2/1 38/2/1
f 29/2/1 30/2/1 40/2/1
f 40/2/1 30/2/1 41/2/1
f 37/1/1 38/1/1 42/1/1
f 38/2/1 35/2/1 42/2/1
f 42/2/1 35/2/1 43/2/1
f 39/2/1 40/2/1 45/2/1
f 45/2/1 40/2/1 46/2/1
f 44/2/1 45/2/1 47/2/1
f 47/2/1 45/2/1 48/2/1
f 37/1/1 42/1/1 50/1/1
f 48/3/1 49/3/1 51/3/1
f 51/3/1 49/3/1 52/3/1
f 37/1/1 50/1/1 53/1/1
f 53/1/1 50/1/1 54/1/1
f 53/3/1 54/3/1 55/3/1
f 55/3/1 54/3/1 56/3/1
f 55/1/1 56/1/1 57/1/1
f 57/1/1 56/1/1 58/1/1
f 62/2/2 60/2/2 59/2/2
f 63/2/2 60/2/2 62/2/2
f 66/2/2 62/2/2 61/2/2
f 67/2/2 62/2/2 66/2/2
f 69/2/2 66/2/2 65/2/2
f 70/2/2 66/2/2 69/2/2
f 72/2/2 69/2/2 68/2/2
f 74/2/2 64/2/2 63/2/2
f 75/2/2 64/2/2 74/2/2
f 76/1/2 72/1/2 71/1/2
f 76/2/2 69/2/2 72/2/2
f 77/2/2 69/2/2 76/2/2
f 79/2/2 74/2/2 73/2/2
f 80/2/2 74/2/2 79/2/2
f 81/2/2 79/2/2 78/2/2
f 82/2/2 79/2/2 81/2/2
f 84/1/2 76/1/2 71/1/2
f 85/3/2 83/3/2 82/3/2
f 86/3/2 83/3/2 85/3/2
f 87/1/2 84/1/2 71/1/2
f 88/1/2 84/1/2 87/1/2
f 89/3/2 88/3/2 87/3/2
f 90/3/2 88/3/2 89/3/2
f 91/1/2 90/1/2 89/1/2
f 92/1/2 90/1/2 91/1/2
f 96/2/2 94/2/2 93/2/2
f 98/2/2 96/2/2 95/2/2
f 99/2/2 94/2/2 96/2/2
f 99/2/2 98/2/2 97/2/2
f 99/2/2 96/2/2 98/2/2
f 100/2/2 94/2/2 99/2/2
f 102/2/2 99/2/2 97/2/2
f 103/2/2 99/2/2 102/2/2
f 103/1/2 102/1/2 101/1/2
f 104/2/2 99/2/2 103/2/2
f 105/2/2 99/2/2 104/2/2
f 106/1/2 103/1/2 101/1/2
f 107/1/2 106/1/2 101/1/2
f 108/1/2 106/1/2 107/1/2
f 109/3/2 108/3/2 107/3/2
f 110/3/2 108/3/2 109/3/2
f 111/1/2 110/1/2 109/1/2
f 112/1/2 110/1/2 111/1/2
f 115/1/2 114/1/2 113/1/2
f 116/1/2 114/1/2 115/1/2
f 118/3/2 116/3/2 115/3/2
f 118/3/2 117/3/2 116/3/2
f 119/3/2 117/3/2 118/3/2
f 120/3/2 117/3/2 119/3/2
f 121/1/2 119/1/2 118/1/2
f 122/1/2 119/1/2 121/1/2
f 123/1/3 124/1/3 127/1/3
f 124/3/3 125/3/3 128/3/3
f 127/1/3 124/1/3 128/1/3
f 125/1/3 126/1/3 129/1/3
f 128/3/3 125/3/3 129/3/3
f 129/1/3 126/1/3 130/1/3
f 131/1/3 132/1/3 137/1/3
f 132/3/3 133/3/3 138/3/3
f 137/1/3 132/1/3 138/1/3
f 133/1/3 134/1/3 139/1/3
f 138/3/3 133/3/3 139/3/3
f 139/1/3 134/1/3 140/1/3
f 135/2/3 136/2/3 141/2/3
f 141/2/3 136/2/3 142/2/3
f 143/1/3 144/1/3 147/1/3
f 144/3/3 145/3/3 148/3/3
f 147/1/3 144/1/3 148/1/3
f 145/1/3 146/1/3 149/1/3
f 148/3/3 145/3/3 149/3/3
f 149/1/3 146/1/3 150/1/3
f 151/2/3 152/2/3 154/2/3
f 154/2/3 152/2/3 155/2/3
f 153/2/3 154/2/3 156/2/3
f 156/2/3 154/2/3 157/2/3
f 157/2/3 158/2/3 159/2/3
f 159/2/3 158/2/3 160/2/3
f 161/1/3 162/1/3 165/1/3
f 162/3/3 163/3/3 166/3/3
f 165/1/3 162/1/3 166/1/3
f 163/1/3 164/1/3 167/1/3
f 166/3/3 163/3/3 167/3/3
f 167/1/3 164/1/3 168/1/3
f 169/2/3 170/2/3 172/2/3
f 172/2/3 170/2/3 173/2/3
f 171/2/3 172/2/3 174/2/3
f 174/2/3 172/2/3 175/2/3
f 175/2/3 176/2/3 177/2/3
f 177/2/3 176/2/3 178/2/3
f 179/2/3 180/2/3 182/2/3
f 182/2/3 180/2/3 183/2/3
f 181/2/3 182/2/3 184/2/3
f 184/2/3 182/2/3 185/2/3
f 185/2/3 186/2/3 187/2/3
f 187/2/3 186/2/3 188/2/3
f 191/1/4 190/1/4 189/1/4
f 192/1/4 190/1/4 191/1/4
f 195/1/4 194/1/4 193/1/4
f 196/1/4 194/1/4 195/1/4
f 197/2/4 196/2/4 195/2/4
f 198/2/4 196/2/4 197/2/4
f 199/1/4 198/1/4 197/1/4
f 200/1/4 198/1/4 199/1/4
f 205/2/4 202/2/4 201/2/4
f 206/2/4 202/2/4 205/2/4
f 207/2/4 204/2/4 203/2/4
f 210/2/4 204/2/4 207/2/4
f 211/2/4 209/2/4 208/2/4
f 212/2/4 209/2/4 211/2/4
f 213/2/4 204/2/4 210/2/4
f 214/2/4 204/2/4 213/2/4
f 215/1/4 212/1/4 211/1/4
f 216/1/4 212/1/4 215/1/4
f 217/1/4 214/1/4 213/1/4
f 218/1/4 214/1/4 217/1/4
f 223/2/4 220/2/4 219/2/4
f 224/2/4 220/2/4 223/2/4
f 225/3/4 222/3/4 221/3/4
f 226/3/4 222/3/4 225/3/4
f 228/2/4 225/2/4 224/2/4
f 229/2/4 225/2/4 228/2/4
f 231/2/4 228/2/4 227/2/4
f 232/2/4 228/2/4 231/2/4
f 233/3/4 230/3/4 229/3/4
f 234/3/4 230/3/4 233/3/4
f 238/2/4 236/2/4 235/2/4
f 239/2/4 236/2/4 238/2/4
f 243/2/4 238/2/4 237/2/4
f 244/2/4 238/2/4 243/2/4
f 245/2/4 240/2/4 239/2/4
f 246/2/4 240/2/4 245/2/4
f 247/3/4 242/3/4 241/3/4
f 248/3/4 242/3/4 247/3/4
f 249/2/4 245/2/4 244/2/4
f 250/2/4 245/2/4 249/2/4
f 253/2/4 252/2/4 251/2/4
f 254/2/4 252/2/4 253/2/4
f 255/2/5 256/2/5 257/2/5
f 257/2/5 256/2/5 258/2/5
f 259/2/5 260/2/5 262/2/5
f 262/2/5 260/2/5 263/2/5
f 261/2/5 262/2/5 265/2/5
f 265/2/5 262/2/5 266/2/5
f 263/2/5 264/2/5 267/2/5
f 267/2/5 264/2/5 268/2/5
f 266/2/5 267/2/5 269/2/5
f 269/2/5 267/2/5 270/2/5
f 271/2/5 272/2/5 274/2/5
f 274/2/5 272/2/5 275/2/5
f 273/2/5 274/2/5 277/2/5
f 277/2/5 274/2/5 278/2/5
f 275/2/5 276/2/5 279/2/5
f 279/2/5 276/2/5 280/2/5
f 281/2/5 282/2/5 284/2/5
f 284/2/5 282/2/5 285/2/5
f 283/2/5 284/2/5 287/2/5
f 287/2/5 284/2/5 288/2/5
f 285/2/5 286/2/5 289/2/5
f 289/2/5 286/2/5 290/2/5
f 291/1/5 292/1/5 293/1/5
f 293/1/5 292/1/5 294/1/5
f 295/1/5 296/1/5 299/1/5
f 299/1/5 296/1/5 300/1/5
f 297/1/5 298/1/5 301/1/5
f 301/1/5 298/1/5 302/1/5
f 303/1/5 304/1/5 305/1/5
f 305/1/5 304/1/5 306/1/5
f 307/3/5 308/3/5 312/3/5
f 312/3/5 308/3/5 313/3/5
f 310/3/5 311/3/5 314/3/5
f 309/3/5 310/3/5 314/3/5
f 314/3/5 311/3/5 315/3/5
f 313/3/5 314/3/5 316/3/5
f 316/3/5 314/3/5 317/3/5
f 322/2/6 319/2/6 318/2/6
f 323/2/6 319/2/6 322/2/6
f 324/2/6 321/2/6 320/2/6
f 325/2/6 321/2/6 324/2/6
f 326/2/6 324/2/6 323/2/6
f 327/2/6 324/2/6 326/2/6
f 332/2/6 329/2/6 328/2/6
f 333/2/6 329/2/6 332/2/6
f 334/2/6 331/2/6 330/2/6
f 335/2/6 331/2/6 334/2/6
f 336/2/6 334/2/6 333/2/6
f 337/2/6 334/2/6 336/2/6
f 343/3/6 339/3/6 338/3/6
f 344/2/6 340/2/6 339/2/6
f 344/3/6 339/3/6 343/3/6
f 345/3/6 342/3/6 341/3/6
f 345/2/6 340/2/6 344/2/6
f 345/3/6 341/3/6 340/3/6
f 346/3/6 342/3/6 345/3/6
f 347/3/6 345/3/6 344/3/6
f 348/3/6 345/3/6 347/3/6
f 354/2/6 350/2/6 349/2/6
f 354/2/6 351/2/6 350/2/6
f 354/2/6 352/2/6 351/2/6
f 355/1/6 353/1/6 352/1/6
f 355/2/6 352/2/6 354/2/6
f 356/1/6 353/1/6 355/1/6
f 361/1/6 358/1/6 357/1/6
f 362/2/6 359/2/6 358/2/6
f 362/1/6 358/1/6 361/1/6
f 363/1/6 360/1/6 359/1/6
f 363/2/6 359/2/6 362/2/6
f 364/1/6 360/1/6 363/1/6
f 367/1/6 366/1/6 365/1/6
f 368/1/6 366/1/6 367/1/6
