# MagicaVoxel @ Ephtracy

# group
o 

# material
mtllib Character-10.mtl
usemtl palette

# normals
vn -1 0 0
vn 1 0 0
vn 0 0 1
vn 0 0 -1
vn 0 -1 0
vn 0 1 0

# texcoords
vt 0.00976563 0.5
vt 0.0527344 0.5
vt 0.970703 0.5

# verts
v -0.5 2.7 0.3
v -0.5 2.7 0
v -0.5 2.7 -0.1
v -0.5 2.7 -0.2
v -0.5 2.8 0.3
v -0.5 2.8 0
v -0.5 2.8 -0.1
v -0.5 2.8 -0.2
v -0.5 2.9 0.3
v -0.5 2.9 0.2
v -0.5 2.9 -0.2
v -0.5 3 0.2
v -0.5 3 0.1
v -0.5 3 -0.2
v -0.5 3.1 0.1
v -0.5 3.1 -0.2
v -0.4 2.7 -0.2
v -0.4 2.7 -0.3
v -0.4 2.8 -0.2
v -0.4 2.8 -0.3
v -0.4 2.9 0.4
v -0.4 2.9 0.3
v -0.4 2.9 0.2
v -0.4 2.9 -0.2
v -0.4 2.9 -0.3
v -0.4 3 0.4
v -0.4 3 0.3
v -0.4 3 0.2
v -0.4 3 0.1
v -0.4 3 -0.2
v -0.4 3 -0.3
v -0.4 3.1 0.2
v -0.4 3.1 0.1
v -0.4 3.1 -0.2
v -0.4 3.1 -0.3
v -0.3 2.6 0.3
v -0.3 2.6 -0.3
v -0.3 2.6 -0.4
v -0.3 2.7 0.3
v -0.3 2.7 -0.3
v -0.3 2.8 -0.3
v -0.3 2.8 -0.4
v -0.3 2.9 -0.3
v -0.3 2.9 -0.4
v -0.3 3 0.4
v -0.3 3 0.3
v -0.3 3 0.2
v -0.3 3 -0.3
v -0.3 3 -0.4
v -0.3 3.1 0.4
v -0.3 3.1 0.2
v -0.3 3.1 -0.3
v -0.3 3.1 -0.4
v 0.1 2.6 0.3
v 0.1 2.6 0.2
v 0.1 2.6 -0.3
v 0.1 2.6 -0.4
v 0.1 2.7 0.3
v 0.1 2.7 0.2
v 0.1 2.7 -0.3
v 0.1 2.7 -0.4
v 0.2 3 0.4
v 0.2 3 0.3
v 0.2 3.1 0.4
v 0.2 3.1 0.3
v 0.3 2.9 0.4
v 0.3 2.9 0.3
v 0.3 3 0.4
v 0.3 3 0.3
v -0.3 2.9 0.4
v -0.3 2.9 0.3
v -0.3 3 0.4
v -0.3 3 0.3
v -0.2 3 0.4
v -0.2 3 0.3
v -0.2 3.1 0.4
v -0.2 3.1 0.3
v -0.1 2.6 0.3
v -0.1 2.6 0.2
v -0.1 2.6 -0.3
v -0.1 2.6 -0.4
v -0.1 2.7 0.3
v -0.1 2.7 0.2
v -0.1 2.7 -0.3
v -0.1 2.7 -0.4
v 0.3 2.6 0.3
v 0.3 2.6 -0.3
v 0.3 2.6 -0.4
v 0.3 2.7 0.3
v 0.3 2.7 -0.3
v 0.3 2.8 -0.3
v 0.3 2.8 -0.4
v 0.3 2.9 -0.3
v 0.3 2.9 -0.4
v 0.3 3 0.4
v 0.3 3 0.3
v 0.3 3 0.2
v 0.3 3 -0.3
v 0.3 3 -0.4
v 0.3 3.1 0.4
v 0.3 3.1 0.2
v 0.3 3.1 -0.3
v 0.3 3.1 -0.4
v 0.4 2.7 -0.2
v 0.4 2.7 -0.3
v 0.4 2.8 -0.2
v 0.4 2.8 -0.3
v 0.4 2.9 0.4
v 0.4 2.9 0.3
v 0.4 2.9 0.2
v 0.4 2.9 -0.2
v 0.4 2.9 -0.3
v 0.4 3 0.4
v 0.4 3 0.3
v 0.4 3 0.2
v 0.4 3 0.1
v 0.4 3 -0.2
v 0.4 3 -0.3
v 0.4 3.1 0.2
v 0.4 3.1 0.1
v 0.4 3.1 -0.2
v 0.4 3.1 -0.3
v 0.5 2.7 0.3
v 0.5 2.7 0
v 0.5 2.7 -0.1
v 0.5 2.7 -0.2
v 0.5 2.8 0.3
v 0.5 2.8 0
v 0.5 2.8 -0.1
v 0.5 2.8 -0.2
v 0.5 2.9 0.3
v 0.5 2.9 0.2
v 0.5 2.9 -0.2
v 0.5 3 0.2
v 0.5 3 0.1
v 0.5 3 -0.2
v 0.5 3.1 0.1
v 0.5 3.1 -0.2
v -0.4 2.9 0.4
v -0.4 3 0.4
v -0.3 2.9 0.4
v -0.3 3 0.4
v -0.3 3.1 0.4
v -0.2 3 0.4
v -0.2 3.1 0.4
v 0.2 3 0.4
v 0.2 3.1 0.4
v 0.3 2.9 0.4
v 0.3 3 0.4
v 0.3 3.1 0.4
v 0.4 2.9 0.4
v 0.4 3 0.4
v -0.5 2.7 0.3
v -0.5 2.8 0.3
v -0.5 2.9 0.3
v -0.4 2.9 0.3
v -0.3 2.6 0.3
v -0.3 2.7 0.3
v -0.3 2.8 0.3
v -0.3 2.9 0.3
v -0.3 3 0.3
v -0.2 2.7 0.3
v -0.2 2.8 0.3
v -0.2 3 0.3
v -0.2 3.1 0.3
v -0.1 2.6 0.3
v -0.1 2.7 0.3
v 0.1 2.6 0.3
v 0.1 2.7 0.3
v 0.2 2.7 0.3
v 0.2 2.8 0.3
v 0.2 3 0.3
v 0.2 3.1 0.3
v 0.3 2.6 0.3
v 0.3 2.7 0.3
v 0.3 2.8 0.3
v 0.3 2.9 0.3
v 0.3 3 0.3
v 0.4 2.9 0.3
v 0.5 2.7 0.3
v 0.5 2.8 0.3
v 0.5 2.9 0.3
v -0.5 2.9 0.2
v -0.5 3 0.2
v -0.4 2.9 0.2
v -0.4 3 0.2
v -0.4 3.1 0.2
v -0.3 3 0.2
v -0.3 3.1 0.2
v -0.1 2.6 0.2
v -0.1 2.7 0.2
v 0.1 2.6 0.2
v 0.1 2.7 0.2
v 0.3 3 0.2
v 0.3 3.1 0.2
v 0.4 2.9 0.2
v 0.4 3 0.2
v 0.4 3.1 0.2
v 0.5 2.9 0.2
v 0.5 3 0.2
v -0.5 3 0.1
v -0.5 3.1 0.1
v -0.4 3 0.1
v -0.4 3.1 0.1
v 0.4 3 0.1
v 0.4 3.1 0.1
v 0.5 3 0.1
v 0.5 3.1 0.1
v -0.5 2.7 -0.2
v -0.5 2.8 -0.2
v -0.5 2.9 -0.2
v -0.5 3 -0.2
v -0.5 3.1 -0.2
v -0.4 2.7 -0.2
v -0.4 2.8 -0.2
v -0.4 2.9 -0.2
v -0.4 3 -0.2
v -0.4 3.1 -0.2
v 0.4 2.7 -0.2
v 0.4 2.8 -0.2
v 0.4 2.9 -0.2
v 0.4 3 -0.2
v 0.4 3.1 -0.2
v 0.5 2.7 -0.2
v 0.5 2.8 -0.2
v 0.5 2.9 -0.2
v 0.5 3 -0.2
v 0.5 3.1 -0.2
v -0.4 2.7 -0.3
v -0.4 2.8 -0.3
v -0.4 2.9 -0.3
v -0.4 3 -0.3
v -0.4 3.1 -0.3
v -0.3 2.7 -0.3
v -0.3 2.8 -0.3
v -0.3 2.9 -0.3
v -0.3 3 -0.3
v -0.3 3.1 -0.3
v -0.1 2.6 -0.3
v -0.1 2.7 -0.3
v 0.1 2.6 -0.3
v 0.1 2.7 -0.3
v 0.3 2.7 -0.3
v 0.3 2.8 -0.3
v 0.3 2.9 -0.3
v 0.3 3 -0.3
v 0.3 3.1 -0.3
v 0.4 2.7 -0.3
v 0.4 2.8 -0.3
v 0.4 2.9 -0.3
v 0.4 3 -0.3
v 0.4 3.1 -0.3
v -0.3 2.6 -0.4
v -0.3 2.8 -0.4
v -0.3 2.9 -0.4
v -0.3 3 -0.4
v -0.3 3.1 -0.4
v -0.1 2.6 -0.4
v -0.1 2.7 -0.4
v 0.1 2.6 -0.4
v 0.1 2.7 -0.4
v 0.3 2.6 -0.4
v 0.3 2.8 -0.4
v 0.3 2.9 -0.4
v 0.3 3 -0.4
v 0.3 3.1 -0.4
v -0.3 2.6 0.3
v -0.1 2.6 0.3
v 0.1 2.6 0.3
v 0.3 2.6 0.3
v -0.1 2.6 0.2
v 0.1 2.6 0.2
v -0.3 2.6 -0.3
v -0.1 2.6 -0.3
v 0.1 2.6 -0.3
v 0.3 2.6 -0.3
v -0.3 2.6 -0.4
v -0.1 2.6 -0.4
v 0.1 2.6 -0.4
v 0.3 2.6 -0.4
v -0.5 2.7 0.3
v -0.3 2.7 0.3
v -0.1 2.7 0.3
v 0.1 2.7 0.3
v 0.3 2.7 0.3
v 0.5 2.7 0.3
v -0.1 2.7 0.2
v 0.1 2.7 0.2
v -0.5 2.7 0
v -0.4 2.7 0
v 0.4 2.7 0
v 0.5 2.7 0
v -0.5 2.7 -0.1
v -0.4 2.7 -0.1
v 0.4 2.7 -0.1
v 0.5 2.7 -0.1
v -0.5 2.7 -0.2
v -0.4 2.7 -0.2
v 0.4 2.7 -0.2
v 0.5 2.7 -0.2
v -0.4 2.7 -0.3
v -0.3 2.7 -0.3
v -0.1 2.7 -0.3
v 0.1 2.7 -0.3
v 0.3 2.7 -0.3
v 0.4 2.7 -0.3
v -0.1 2.7 -0.4
v 0.1 2.7 -0.4
v -0.4 2.9 0.4
v -0.3 2.9 0.4
v 0.3 2.9 0.4
v 0.4 2.9 0.4
v -0.4 2.9 0.3
v -0.3 2.9 0.3
v 0.3 2.9 0.3
v 0.4 2.9 0.3
v -0.3 3 0.4
v -0.2 3 0.4
v 0.2 3 0.4
v 0.3 3 0.4
v -0.3 3 0.3
v -0.2 3 0.3
v 0.2 3 0.3
v 0.3 3 0.3
v -0.5 2.9 0.3
v -0.4 2.9 0.3
v 0.4 2.9 0.3
v 0.5 2.9 0.3
v -0.5 2.9 0.2
v -0.4 2.9 0.2
v 0.4 2.9 0.2
v 0.5 2.9 0.2
v -0.4 3 0.4
v -0.3 3 0.4
v 0.3 3 0.4
v 0.4 3 0.4
v -0.4 3 0.3
v -0.3 3 0.3
v 0.3 3 0.3
v 0.4 3 0.3
v -0.5 3 0.2
v -0.4 3 0.2
v -0.3 3 0.2
v 0.3 3 0.2
v 0.4 3 0.2
v 0.5 3 0.2
v -0.5 3 0.1
v -0.4 3 0.1
v 0.4 3 0.1
v 0.5 3 0.1
v -0.3 3.1 0.4
v -0.2 3.1 0.4
v 0.2 3.1 0.4
v 0.3 3.1 0.4
v -0.2 3.1 0.3
v 0.2 3.1 0.3
v -0.4 3.1 0.2
v -0.3 3.1 0.2
v 0.3 3.1 0.2
v 0.4 3.1 0.2
v -0.5 3.1 0.1
v -0.4 3.1 0.1
v 0.4 3.1 0.1
v 0.5 3.1 0.1
v -0.5 3.1 -0.2
v -0.4 3.1 -0.2
v 0.4 3.1 -0.2
v 0.5 3.1 -0.2
v -0.4 3.1 -0.3
v -0.3 3.1 -0.3
v 0.3 3.1 -0.3
v 0.4 3.1 -0.3
v -0.3 3.1 -0.4
v 0.3 3.1 -0.4

# faces
f 5/3/1 2/3/1 1/3/1
f 6/1/1 3/1/1 2/1/1
f 6/3/1 2/3/1 5/3/1
f 7/3/1 4/3/1 3/3/1
f 7/1/1 3/1/1 6/1/1
f 8/3/1 4/3/1 7/3/1
f 9/1/1 6/1/1 5/1/1
f 9/1/1 7/1/1 6/1/1
f 9/1/1 8/1/1 7/1/1
f 10/1/1 8/1/1 9/1/1
f 11/1/1 8/1/1 10/1/1
f 12/3/1 11/3/1 10/3/1
f 13/3/1 11/3/1 12/3/1
f 14/3/1 11/3/1 13/3/1
f 15/1/1 14/1/1 13/1/1
f 16/1/1 14/1/1 15/1/1
f 19/3/1 18/3/1 17/3/1
f 20/3/1 18/3/1 19/3/1
f 24/1/1 20/1/1 19/1/1
f 25/1/1 20/1/1 24/1/1
f 26/1/1 22/1/1 21/1/1
f 27/3/1 23/3/1 22/3/1
f 27/1/1 22/1/1 26/1/1
f 28/3/1 23/3/1 27/3/1
f 30/3/1 25/3/1 24/3/1
f 31/3/1 25/3/1 30/3/1
f 32/1/1 29/1/1 28/1/1
f 33/1/1 29/1/1 32/1/1
f 34/1/1 31/1/1 30/1/1
f 35/1/1 31/1/1 34/1/1
f 39/3/1 37/3/1 36/3/1
f 40/2/1 38/2/1 37/2/1
f 40/3/1 37/3/1 39/3/1
f 41/2/1 38/2/1 40/2/1
f 42/2/1 38/2/1 41/2/1
f 43/1/1 42/1/1 41/1/1
f 44/1/1 42/1/1 43/1/1
f 48/2/1 44/2/1 43/2/1
f 49/2/1 44/2/1 48/2/1
f 50/1/1 47/1/1 46/1/1
f 50/1/1 46/1/1 45/1/1
f 51/1/1 47/1/1 50/1/1
f 52/1/1 49/1/1 48/1/1
f 53/1/1 49/1/1 52/1/1
f 58/3/1 55/3/1 54/3/1
f 59/3/1 55/3/1 58/3/1
f 60/2/1 57/2/1 56/2/1
f 61/2/1 57/2/1 60/2/1
f 64/1/1 63/1/1 62/1/1
f 65/1/1 63/1/1 64/1/1
f 68/1/1 67/1/1 66/1/1
f 69/1/1 67/1/1 68/1/1
f 70/1/2 71/1/2 72/1/2
f 72/1/2 71/1/2 73/1/2
f 74/1/2 75/1/2 76/1/2
f 76/1/2 75/1/2 77/1/2
f 78/3/2 79/3/2 82/3/2
f 82/3/2 79/3/2 83/3/2
f 80/2/2 81/2/2 84/2/2
f 84/2/2 81/2/2 85/2/2
f 86/3/2 87/3/2 89/3/2
f 87/2/2 88/2/2 90/2/2
f 89/3/2 87/3/2 90/3/2
f 90/2/2 88/2/2 91/2/2
f 91/2/2 88/2/2 92/2/2
f 91/1/2 92/1/2 93/1/2
f 93/1/2 92/1/2 94/1/2
f 93/2/2 94/2/2 98/2/2
f 98/2/2 94/2/2 99/2/2
f 96/1/2 97/1/2 100/1/2
f 95/1/2 96/1/2 100/1/2
f 100/1/2 97/1/2 101/1/2
f 98/1/2 99/1/2 102/1/2
f 102/1/2 99/1/2 103/1/2
f 104/3/2 105/3/2 106/3/2
f 106/3/2 105/3/2 107/3/2
f 106/1/2 107/1/2 111/1/2
f 111/1/2 107/1/2 112/1/2
f 108/1/2 109/1/2 113/1/2
f 109/3/2 110/3/2 114/3/2
f 113/1/2 109/1/2 114/1/2
f 114/3/2 110/3/2 115/3/2
f 111/3/2 112/3/2 117/3/2
f 117/3/2 112/3/2 118/3/2
f 115/1/2 116/1/2 119/1/2
f 119/1/2 116/1/2 120/1/2
f 117/1/2 118/1/2 121/1/2
f 121/1/2 118/1/2 122/1/2
f 123/3/2 124/3/2 127/3/2
f 124/1/2 125/1/2 128/1/2
f 127/3/2 124/3/2 128/3/2
f 125/3/2 126/3/2 129/3/2
f 128/1/2 125/1/2 129/1/2
f 129/3/2 126/3/2 130/3/2
f 127/1/2 128/1/2 131/1/2
f 128/1/2 129/1/2 131/1/2
f 129/1/2 130/1/2 131/1/2
f 131/1/2 130/1/2 132/1/2
f 132/1/2 130/1/2 133/1/2
f 132/3/2 133/3/2 134/3/2
f 134/3/2 133/3/2 135/3/2
f 135/3/2 133/3/2 136/3/2
f 135/1/2 136/1/2 137/1/2
f 137/1/2 136/1/2 138/1/2
f 141/1/3 140/1/3 139/1/3
f 142/1/3 140/1/3 141/1/3
f 144/1/3 143/1/3 142/1/3
f 145/1/3 143/1/3 144/1/3
f 149/1/3 147/1/3 146/1/3
f 150/1/3 147/1/3 149/1/3
f 151/1/3 149/1/3 148/1/3
f 152/1/3 149/1/3 151/1/3
f 156/1/3 155/1/3 154/1/3
f 158/3/3 154/3/3 153/3/3
f 159/1/3 156/1/3 154/1/3
f 159/3/3 154/3/3 158/3/3
f 160/1/3 156/1/3 159/1/3
f 162/1/3 160/1/3 159/1/3
f 162/3/3 158/3/3 157/3/3
f 162/1/3 159/1/3 158/1/3
f 163/1/3 160/1/3 162/1/3
f 164/3/3 161/3/3 160/3/3
f 166/3/3 162/3/3 157/3/3
f 166/3/3 163/3/3 162/3/3
f 167/3/3 163/3/3 166/3/3
f 169/3/3 163/3/3 167/3/3
f 170/3/3 163/3/3 169/3/3
f 170/3/3 169/3/3 168/3/3
f 171/1/3 160/1/3 163/1/3
f 171/3/3 163/3/3 170/3/3
f 172/1/3 165/1/3 164/1/3
f 172/3/3 164/3/3 160/3/3
f 173/1/3 165/1/3 172/1/3
f 174/3/3 170/3/3 168/3/3
f 175/1/3 171/1/3 170/1/3
f 175/3/3 170/3/3 174/3/3
f 176/1/3 160/1/3 171/1/3
f 176/1/3 171/1/3 175/1/3
f 177/3/3 172/3/3 160/3/3
f 177/1/3 160/1/3 176/1/3
f 178/3/3 172/3/3 177/3/3
f 179/1/3 177/1/3 176/1/3
f 180/3/3 176/3/3 175/3/3
f 181/1/3 179/1/3 176/1/3
f 181/3/3 176/3/3 180/3/3
f 182/1/3 179/1/3 181/1/3
f 185/3/3 184/3/3 183/3/3
f 186/3/3 184/3/3 185/3/3
f 188/1/3 187/1/3 186/1/3
f 189/1/3 187/1/3 188/1/3
f 192/3/3 191/3/3 190/3/3
f 193/3/3 191/3/3 192/3/3
f 197/1/3 195/1/3 194/1/3
f 198/1/3 195/1/3 197/1/3
f 199/3/3 197/3/3 196/3/3
f 200/3/3 197/3/3 199/3/3
f 203/1/3 202/1/3 201/1/3
f 204/1/3 202/1/3 203/1/3
f 207/1/3 206/1/3 205/1/3
f 208/1/3 206/1/3 207/1/3
f 209/3/4 210/3/4 214/3/4
f 210/1/4 211/1/4 215/1/4
f 214/3/4 210/3/4 215/3/4
f 211/3/4 212/3/4 216/3/4
f 215/1/4 211/1/4 216/1/4
f 212/1/4 213/1/4 217/1/4
f 216/3/4 212/3/4 217/3/4
f 217/1/4 213/1/4 218/1/4
f 219/3/4 220/3/4 224/3/4
f 220/1/4 221/1/4 225/1/4
f 224/3/4 220/3/4 225/3/4
f 221/3/4 222/3/4 226/3/4
f 225/1/4 221/1/4 226/1/4
f 222/1/4 223/1/4 227/1/4
f 226/3/4 222/3/4 227/3/4
f 227/1/4 223/1/4 228/1/4
f 229/3/4 230/3/4 234/3/4
f 230/1/4 231/1/4 235/1/4
f 234/3/4 230/3/4 235/3/4
f 231/3/4 232/3/4 236/3/4
f 235/1/4 231/1/4 236/1/4
f 232/1/4 233/1/4 237/1/4
f 236/3/4 232/3/4 237/3/4
f 237/1/4 233/1/4 238/1/4
f 239/3/4 240/3/4 241/3/4
f 241/3/4 240/3/4 242/3/4
f 243/3/4 244/3/4 248/3/4
f 244/1/4 245/1/4 249/1/4
f 248/3/4 244/3/4 249/3/4
f 245/3/4 246/3/4 250/3/4
f 249/1/4 245/1/4 250/1/4
f 246/1/4 247/1/4 251/1/4
f 250/3/4 246/3/4 251/3/4
f 251/1/4 247/1/4 252/1/4
f 253/2/4 254/2/4 258/2/4
f 258/2/4 254/2/4 259/2/4
f 259/2/4 254/2/4 261/2/4
f 260/2/4 261/2/4 262/2/4
f 254/1/4 255/1/4 263/1/4
f 262/2/4 261/2/4 263/2/4
f 261/2/4 254/2/4 263/2/4
f 255/2/4 256/2/4 264/2/4
f 263/1/4 255/1/4 264/1/4
f 256/1/4 257/1/4 265/1/4
f 264/2/4 256/2/4 265/2/4
f 265/1/4 257/1/4 266/1/4
f 271/3/5 268/3/5 267/3/5
f 272/3/5 270/3/5 269/3/5
f 273/3/5 271/3/5 267/3/5
f 273/3/5 272/3/5 271/3/5
f 274/3/5 272/3/5 273/3/5
f 275/3/5 270/3/5 272/3/5
f 275/3/5 272/3/5 274/3/5
f 276/3/5 270/3/5 275/3/5
f 277/2/5 274/2/5 273/2/5
f 278/2/5 274/2/5 277/2/5
f 279/2/5 276/2/5 275/2/5
f 280/2/5 276/2/5 279/2/5
f 287/3/5 284/3/5 283/3/5
f 288/3/5 284/3/5 287/3/5
f 289/3/5 282/3/5 281/3/5
f 290/3/5 282/3/5 289/3/5
f 291/3/5 286/3/5 285/3/5
f 292/3/5 286/3/5 291/3/5
f 293/1/5 290/1/5 289/1/5
f 294/3/5 282/3/5 290/3/5
f 294/1/5 290/1/5 293/1/5
f 295/3/5 291/3/5 285/3/5
f 295/1/5 292/1/5 291/1/5
f 296/1/5 292/1/5 295/1/5
f 297/3/5 294/3/5 293/3/5
f 298/3/5 282/3/5 294/3/5
f 298/3/5 294/3/5 297/3/5
f 299/3/5 295/3/5 285/3/5
f 299/3/5 296/3/5 295/3/5
f 300/3/5 296/3/5 299/3/5
f 301/3/5 282/3/5 298/3/5
f 302/3/5 282/3/5 301/3/5
f 305/3/5 299/3/5 285/3/5
f 306/3/5 299/3/5 305/3/5
f 307/2/5 304/2/5 303/2/5
f 308/2/5 304/2/5 307/2/5
f 313/1/5 310/1/5 309/1/5
f 314/1/5 310/1/5 313/1/5
f 315/1/5 312/1/5 311/1/5
f 316/1/5 312/1/5 315/1/5
f 321/1/5 318/1/5 317/1/5
f 322/1/5 318/1/5 321/1/5
f 323/1/5 320/1/5 319/1/5
f 324/1/5 320/1/5 323/1/5
f 325/1/6 326/1/6 329/1/6
f 329/1/6 326/1/6 330/1/6
f 327/1/6 328/1/6 331/1/6
f 331/1/6 328/1/6 332/1/6
f 333/1/6 334/1/6 337/1/6
f 337/1/6 334/1/6 338/1/6
f 335/1/6 336/1/6 339/1/6
f 339/1/6 336/1/6 340/1/6
f 337/3/6 338/3/6 342/3/6
f 342/3/6 338/3/6 343/3/6
f 339/3/6 340/3/6 344/3/6
f 344/3/6 340/3/6 345/3/6
f 341/3/6 342/3/6 347/3/6
f 347/3/6 342/3/6 348/3/6
f 345/3/6 346/3/6 349/3/6
f 349/3/6 346/3/6 350/3/6
f 351/1/6 352/1/6 355/1/6
f 353/1/6 354/1/6 356/1/6
f 351/1/6 355/1/6 358/1/6
f 355/1/6 356/1/6 358/1/6
f 356/1/6 354/1/6 359/1/6
f 358/1/6 356/1/6 359/1/6
f 357/1/6 358/1/6 362/1/6
f 359/1/6 360/1/6 362/1/6
f 358/1/6 359/1/6 362/1/6
f 362/1/6 360/1/6 363/1/6
f 361/1/6 362/1/6 365/1/6
f 363/1/6 364/1/6 365/1/6
f 362/1/6 363/1/6 365/1/6
f 365/1/6 364/1/6 366/1/6
f 366/1/6 364/1/6 367/1/6
f 367/1/6 364/1/6 368/1/6
f 366/1/6 367/1/6 369/1/6
f 369/1/6 367/1/6 370/1/6
f 370/1/6 367/1/6 371/1/6
f 371/1/6 367/1/6 372/1/6
f 370/1/6 371/1/6 373/1/6
f 373/1/6 371/1/6 374/1/6
