# MagicaVoxel @ Ephtracy

# group
o 

# material
mtllib Character-11.mtl
usemtl palette

# normals
vn -1 0 0
vn 1 0 0
vn 0 0 1
vn 0 0 -1
vn 0 -1 0
vn 0 1 0

# texcoords
vt 0.00976563 0.5
vt 0.0527344 0.5
vt 0.986328 0.5

# verts
v -0.5 3.5 0.2
v -0.5 3.5 -0.2
v -0.5 3.6 -0.2
v -0.5 3.6 -0.3
v -0.5 3.9 0.3
v -0.5 3.9 0.2
v -0.5 4.2 0.3
v -0.5 4.2 0.2
v -0.5 4.2 -0.2
v -0.5 4.2 -0.3
v -0.5 4.3 0.2
v -0.5 4.3 0.1
v -0.5 4.3 -0.1
v -0.5 4.3 -0.2
v -0.5 4.4 0.1
v -0.5 4.4 -0.1
v -0.4 3.1 0.2
v -0.4 3.1 -0.2
v -0.4 3.5 0.3
v -0.4 3.5 0.2
v -0.4 3.5 -0.2
v -0.4 3.5 -0.3
v -0.4 3.6 -0.2
v -0.4 3.6 -0.3
v -0.4 3.9 0.3
v -0.4 3.9 0.2
v -0.4 4.1 0.4
v -0.4 4.1 0.3
v -0.4 4.2 0.3
v -0.4 4.2 0.2
v -0.4 4.2 -0.2
v -0.4 4.2 -0.3
v -0.4 4.3 0.4
v -0.4 4.3 0.3
v -0.4 4.3 0.2
v -0.4 4.3 0.1
v -0.4 4.3 -0.1
v -0.4 4.3 -0.2
v -0.4 4.4 0.1
v -0.4 4.4 -0.1
v -0.4 4.5 0.3
v -0.4 4.5 0.2
v -0.4 4.5 0.1
v -0.4 4.6 0.2
v -0.4 4.6 0.1
v -0.4 4.6 -0.3
v -0.4 4.7 0.1
v -0.4 4.7 -0.3
v -0.3 3.1 0.3
v -0.3 3.1 0.2
v -0.3 3.1 -0.2
v -0.3 3.1 -0.3
v -0.3 3.5 0.3
v -0.3 3.5 0.2
v -0.3 3.5 -0.2
v -0.3 3.5 -0.3
v -0.3 4 0.4
v -0.3 4 0.3
v -0.3 4 -0.3
v -0.3 4 -0.4
v -0.3 4.1 0.4
v -0.3 4.1 0.3
v -0.3 4.6 -0.3
v -0.3 4.7 -0.3
v -0.3 4.7 -0.4
v -0.2 3.1 0.4
v -0.2 3.1 0.3
v -0.2 3.9 -0.3
v -0.2 3.9 -0.4
v -0.2 4 0.4
v -0.2 4 0.3
v -0.2 4 -0.3
v -0.2 4 -0.4
v -0.1 3.8 -0.3
v -0.1 3.8 -0.4
v -0.1 3.9 -0.3
v -0.1 3.9 -0.4
v 0.1 3.1 0.4
v 0.1 3.1 0.3
v 0.1 4 0.4
v 0.1 4 0.3
v 0.2 4 0.4
v 0.2 4 0.3
v 0.2 4.1 0.4
v 0.2 4.1 0.3
v 0.3 4.1 0.4
v 0.3 4.1 0.3
v 0.3 4.3 0.4
v 0.3 4.3 0.3
v 0.3 4.3 0.2
v 0.3 4.4 0.2
v 0.3 4.4 -0.2
v 0.3 4.5 0.3
v 0.3 4.5 0.2
v 0.3 4.5 0.1
v 0.3 4.6 0.2
v 0.3 4.6 0.1
v 0.3 4.6 -0.2
v 0.3 4.6 -0.3
v 0.3 4.7 0.1
v 0.3 4.7 -0.3
v -0.3 4.1 0.4
v -0.3 4.1 0.3
v -0.3 4.3 0.4
v -0.3 4.3 0.3
v -0.3 4.3 0.2
v -0.3 4.4 0.2
v -0.3 4.4 -0.2
v -0.3 4.5 0.3
v -0.3 4.5 0.2
v -0.3 4.5 0.1
v -0.3 4.6 0.2
v -0.3 4.6 0.1
v -0.3 4.6 -0.2
v -0.3 4.6 -0.3
v -0.3 4.7 0.1
v -0.3 4.7 -0.3
v -0.2 4 0.4
v -0.2 4 0.3
v -0.2 4.1 0.4
v -0.2 4.1 0.3
v -0.1 3.1 0.4
v -0.1 3.1 0.3
v -0.1 4 0.4
v -0.1 4 0.3
v 0.1 3.8 -0.3
v 0.1 3.8 -0.4
v 0.1 3.9 -0.3
v 0.1 3.9 -0.4
v 0.2 3.1 0.4
v 0.2 3.1 0.3
v 0.2 3.9 -0.3
v 0.2 3.9 -0.4
v 0.2 4 0.4
v 0.2 4 0.3
v 0.2 4 -0.3
v 0.2 4 -0.4
v 0.3 3.1 0.3
v 0.3 3.1 0.2
v 0.3 3.1 -0.2
v 0.3 3.1 -0.3
v 0.3 3.5 0.3
v 0.3 3.5 0.2
v 0.3 3.5 -0.2
v 0.3 3.5 -0.3
v 0.3 4 0.4
v 0.3 4 0.3
v 0.3 4 -0.3
v 0.3 4 -0.4
v 0.3 4.1 0.4
v 0.3 4.1 0.3
v 0.3 4.6 -0.3
v 0.3 4.7 -0.3
v 0.3 4.7 -0.4
v 0.4 3.1 0.2
v 0.4 3.1 -0.2
v 0.4 3.5 0.3
v 0.4 3.5 0.2
v 0.4 3.5 -0.2
v 0.4 3.5 -0.3
v 0.4 3.6 -0.2
v 0.4 3.6 -0.3
v 0.4 3.9 0.3
v 0.4 3.9 0.2
v 0.4 4.1 0.4
v 0.4 4.1 0.3
v 0.4 4.2 0.3
v 0.4 4.2 0.2
v 0.4 4.2 -0.2
v 0.4 4.2 -0.3
v 0.4 4.3 0.4
v 0.4 4.3 0.3
v 0.4 4.3 0.2
v 0.4 4.3 0.1
v 0.4 4.3 -0.1
v 0.4 4.3 -0.2
v 0.4 4.4 0.1
v 0.4 4.4 -0.1
v 0.4 4.5 0.3
v 0.4 4.5 0.2
v 0.4 4.5 0.1
v 0.4 4.6 0.2
v 0.4 4.6 0.1
v 0.4 4.6 -0.3
v 0.4 4.7 0.1
v 0.4 4.7 -0.3
v 0.5 3.5 0.2
v 0.5 3.5 -0.2
v 0.5 3.6 -0.2
v 0.5 3.6 -0.3
v 0.5 3.9 0.3
v 0.5 3.9 0.2
v 0.5 4.2 0.3
v 0.5 4.2 0.2
v 0.5 4.2 -0.2
v 0.5 4.2 -0.3
v 0.5 4.3 0.2
v 0.5 4.3 0.1
v 0.5 4.3 -0.1
v 0.5 4.3 -0.2
v 0.5 4.4 0.1
v 0.5 4.4 -0.1
v -0.4 4.1 0.4
v -0.4 4.3 0.4
v -0.3 4 0.4
v -0.3 4.1 0.4
v -0.3 4.3 0.4
v -0.2 3.1 0.4
v -0.2 4 0.4
v -0.2 4.1 0.4
v -0.1 3.1 0.4
v -0.1 4 0.4
v 0.1 3.1 0.4
v 0.1 4 0.4
v 0.2 3.1 0.4
v 0.2 4 0.4
v 0.2 4.1 0.4
v 0.3 4 0.4
v 0.3 4.1 0.4
v 0.3 4.3 0.4
v 0.4 4.1 0.4
v 0.4 4.3 0.4
v -0.5 3.9 0.3
v -0.5 4.2 0.3
v -0.4 3.5 0.3
v -0.4 3.9 0.3
v -0.4 4.1 0.3
v -0.4 4.2 0.3
v -0.4 4.3 0.3
v -0.4 4.5 0.3
v -0.3 3.1 0.3
v -0.3 3.5 0.3
v -0.3 4 0.3
v -0.3 4.1 0.3
v -0.3 4.3 0.3
v -0.3 4.5 0.3
v -0.2 3.1 0.3
v -0.2 4 0.3
v -0.2 4.1 0.3
v -0.1 3.1 0.3
v -0.1 4 0.3
v 0.1 3.1 0.3
v 0.1 4 0.3
v 0.2 3.1 0.3
v 0.2 4 0.3
v 0.2 4.1 0.3
v 0.3 3.1 0.3
v 0.3 3.5 0.3
v 0.3 4 0.3
v 0.3 4.1 0.3
v 0.3 4.3 0.3
v 0.3 4.5 0.3
v 0.4 3.5 0.3
v 0.4 3.9 0.3
v 0.4 4.1 0.3
v 0.4 4.2 0.3
v 0.4 4.3 0.3
v 0.4 4.5 0.3
v 0.5 3.9 0.3
v 0.5 4.2 0.3
v -0.5 3.5 0.2
v -0.5 3.9 0.2
v -0.5 4.2 0.2
v -0.5 4.3 0.2
v -0.4 3.1 0.2
v -0.4 3.5 0.2
v -0.4 3.9 0.2
v -0.4 4.2 0.2
v -0.4 4.3 0.2
v -0.4 4.5 0.2
v -0.4 4.6 0.2
v -0.3 3.1 0.2
v -0.3 3.5 0.2
v -0.3 4.3 0.2
v -0.3 4.4 0.2
v -0.3 4.5 0.2
v -0.3 4.6 0.2
v 0.3 3.1 0.2
v 0.3 3.5 0.2
v 0.3 4.3 0.2
v 0.3 4.4 0.2
v 0.3 4.5 0.2
v 0.3 4.6 0.2
v 0.4 3.1 0.2
v 0.4 3.5 0.2
v 0.4 3.9 0.2
v 0.4 4.2 0.2
v 0.4 4.3 0.2
v 0.4 4.5 0.2
v 0.4 4.6 0.2
v 0.5 3.5 0.2
v 0.5 3.9 0.2
v 0.5 4.2 0.2
v 0.5 4.3 0.2
v -0.5 4.3 0.1
v -0.5 4.4 0.1
v -0.4 4.3 0.1
v -0.4 4.4 0.1
v -0.4 4.6 0.1
v -0.4 4.7 0.1
v -0.3 4.6 0.1
v -0.3 4.7 0.1
v 0.3 4.6 0.1
v 0.3 4.7 0.1
v 0.4 4.3 0.1
v 0.4 4.4 0.1
v 0.4 4.6 0.1
v 0.4 4.7 0.1
v 0.5 4.3 0.1
v 0.5 4.4 0.1
v -0.3 4.4 -0.2
v -0.3 4.6 -0.2
v 0.3 4.4 -0.2
v 0.3 4.6 -0.2
v -0.3 4.6 -0.3
v -0.3 4.7 -0.3
v 0.3 4.6 -0.3
v 0.3 4.7 -0.3
v -0.5 4.3 -0.1
v -0.5 4.4 -0.1
v -0.4 4.3 -0.1
v -0.4 4.4 -0.1
v 0.4 4.3 -0.1
v 0.4 4.4 -0.1
v 0.5 4.3 -0.1
v 0.5 4.4 -0.1
v -0.5 3.5 -0.2
v -0.5 3.6 -0.2
v -0.5 4.2 -0.2
v -0.5 4.3 -0.2
v -0.4 3.1 -0.2
v -0.4 3.5 -0.2
v -0.4 3.6 -0.2
v -0.4 4.2 -0.2
v -0.4 4.3 -0.2
v -0.3 3.1 -0.2
v -0.3 3.5 -0.2
v 0.3 3.1 -0.2
v 0.3 3.5 -0.2
v 0.4 3.1 -0.2
v 0.4 3.5 -0.2
v 0.4 3.6 -0.2
v 0.4 4.2 -0.2
v 0.4 4.3 -0.2
v 0.5 3.5 -0.2
v 0.5 3.6 -0.2
v 0.5 4.2 -0.2
v 0.5 4.3 -0.2
v -0.5 3.6 -0.3
v -0.5 4.2 -0.3
v -0.4 3.5 -0.3
v -0.4 3.6 -0.3
v -0.4 3.9 -0.3
v -0.4 4.2 -0.3
v -0.4 4.6 -0.3
v -0.4 4.7 -0.3
v -0.3 3.1 -0.3
v -0.3 3.5 -0.3
v -0.3 3.8 -0.3
v -0.3 3.9 -0.3
v -0.3 4 -0.3
v -0.3 4.6 -0.3
v -0.3 4.7 -0.3
v -0.2 3.1 -0.3
v -0.2 3.2 -0.3
v -0.2 3.7 -0.3
v -0.2 3.8 -0.3
v -0.2 3.9 -0.3
v -0.2 4 -0.3
v -0.1 3.2 -0.3
v -0.1 3.7 -0.3
v -0.1 3.8 -0.3
v -0.1 3.9 -0.3
v 0.1 3.2 -0.3
v 0.1 3.7 -0.3
v 0.1 3.8 -0.3
v 0.1 3.9 -0.3
v 0.2 3.1 -0.3
v 0.2 3.2 -0.3
v 0.2 3.7 -0.3
v 0.2 3.8 -0.3
v 0.2 3.9 -0.3
v 0.2 4 -0.3
v 0.3 3.1 -0.3
v 0.3 3.5 -0.3
v 0.3 3.8 -0.3
v 0.3 3.9 -0.3
v 0.3 4 -0.3
v 0.3 4.6 -0.3
v 0.3 4.7 -0.3
v 0.4 3.5 -0.3
v 0.4 3.6 -0.3
v 0.4 3.9 -0.3
v 0.4 4.2 -0.3
v 0.4 4.6 -0.3
v 0.4 4.7 -0.3
v 0.5 3.6 -0.3
v 0.5 4.2 -0.3
v -0.3 4 -0.4
v -0.3 4.7 -0.4
v -0.2 3.9 -0.4
v -0.2 4 -0.4
v -0.2 4.6 -0.4
v -0.1 3.8 -0.4
v -0.1 3.9 -0.4
v -0.1 4 -0.4
v 0.1 3.8 -0.4
v 0.1 3.9 -0.4
v 0.1 4 -0.4
v 0.2 3.9 -0.4
v 0.2 4 -0.4
v 0.2 4.6 -0.4
v 0.3 4 -0.4
v 0.3 4.7 -0.4
v -0.2 3.1 0.4
v -0.1 3.1 0.4
v 0.1 3.1 0.4
v 0.2 3.1 0.4
v -0.3 3.1 0.3
v -0.2 3.1 0.3
v -0.1 3.1 0.3
v 0.1 3.1 0.3
v 0.2 3.1 0.3
v 0.3 3.1 0.3
v -0.4 3.1 0.2
v -0.3 3.1 0.2
v -0.1 3.1 0.2
v 0.1 3.1 0.2
v 0.3 3.1 0.2
v 0.4 3.1 0.2
v -0.4 3.1 -0.2
v -0.3 3.1 -0.2
v -0.2 3.1 -0.2
v 0.2 3.1 -0.2
v 0.3 3.1 -0.2
v 0.4 3.1 -0.2
v -0.3 3.1 -0.3
v -0.2 3.1 -0.3
v 0.2 3.1 -0.3
v 0.3 3.1 -0.3
v -0.4 3.5 0.3
v -0.3 3.5 0.3
v 0.3 3.5 0.3
v 0.4 3.5 0.3
v -0.5 3.5 0.2
v -0.4 3.5 0.2
v -0.3 3.5 0.2
v 0.3 3.5 0.2
v 0.4 3.5 0.2
v 0.5 3.5 0.2
v -0.5 3.5 -0.2
v -0.4 3.5 -0.2
v -0.3 3.5 -0.2
v 0.3 3.5 -0.2
v 0.4 3.5 -0.2
v 0.5 3.5 -0.2
v -0.4 3.5 -0.3
v -0.3 3.5 -0.3
v 0.3 3.5 -0.3
v 0.4 3.5 -0.3
v -0.5 3.6 -0.2
v -0.4 3.6 -0.2
v 0.4 3.6 -0.2
v 0.5 3.6 -0.2
v -0.5 3.6 -0.3
v -0.4 3.6 -0.3
v 0.4 3.6 -0.3
v 0.5 3.6 -0.3
v -0.1 3.8 -0.3
v 0.1 3.8 -0.3
v -0.1 3.8 -0.4
v 0.1 3.8 -0.4
v -0.5 3.9 0.3
v -0.4 3.9 0.3
v 0.4 3.9 0.3
v 0.5 3.9 0.3
v -0.5 3.9 0.2
v -0.4 3.9 0.2
v 0.4 3.9 0.2
v 0.5 3.9 0.2
v -0.2 3.9 -0.3
v -0.1 3.9 -0.3
v 0.1 3.9 -0.3
v 0.2 3.9 -0.3
v -0.2 3.9 -0.4
v -0.1 3.9 -0.4
v 0.1 3.9 -0.4
v 0.2 3.9 -0.4
v -0.3 4 0.4
v -0.2 4 0.4
v 0.2 4 0.4
v 0.3 4 0.4
v -0.3 4 0.3
v -0.2 4 0.3
v 0.2 4 0.3
v 0.3 4 0.3
v -0.3 4 -0.3
v -0.2 4 -0.3
v 0.2 4 -0.3
v 0.3 4 -0.3
v -0.3 4 -0.4
v -0.2 4 -0.4
v 0.2 4 -0.4
v 0.3 4 -0.4
v -0.4 4.1 0.4
v -0.3 4.1 0.4
v 0.3 4.1 0.4
v 0.4 4.1 0.4
v -0.4 4.1 0.3
v -0.3 4.1 0.3
v 0.3 4.1 0.3
v 0.4 4.1 0.3
v -0.2 4 0.4
v -0.1 4 0.4
v 0.1 4 0.4
v 0.2 4 0.4
v -0.2 4 0.3
v -0.1 4 0.3
v 0.1 4 0.3
v 0.2 4 0.3
v -0.3 4.1 0.4
v -0.2 4.1 0.4
v 0.2 4.1 0.4
v 0.3 4.1 0.4
v -0.3 4.1 0.3
v -0.2 4.1 0.3
v 0.2 4.1 0.3
v 0.3 4.1 0.3
v -0.5 4.2 0.3
v -0.4 4.2 0.3
v 0.4 4.2 0.3
v 0.5 4.2 0.3
v -0.5 4.2 0.2
v -0.4 4.2 0.2
v 0.4 4.2 0.2
v 0.5 4.2 0.2
v -0.5 4.2 -0.2
v -0.4 4.2 -0.2
v 0.4 4.2 -0.2
v 0.5 4.2 -0.2
v -0.5 4.2 -0.3
v -0.4 4.2 -0.3
v 0.4 4.2 -0.3
v 0.5 4.2 -0.3
v -0.4 4.3 0.4
v -0.3 4.3 0.4
v 0.3 4.3 0.4
v 0.4 4.3 0.4
v -0.4 4.3 0.3
v -0.3 4.3 0.3
v 0.3 4.3 0.3
v 0.4 4.3 0.3
v -0.5 4.3 0.2
v -0.4 4.3 0.2
v -0.3 4.3 0.2
v 0.3 4.3 0.2
v 0.4 4.3 0.2
v 0.5 4.3 0.2
v -0.5 4.3 0.1
v -0.4 4.3 0.1
v 0.4 4.3 0.1
v 0.5 4.3 0.1
v -0.5 4.3 -0.1
v -0.4 4.3 -0.1
v 0.4 4.3 -0.1
v 0.5 4.3 -0.1
v -0.5 4.3 -0.2
v -0.4 4.3 -0.2
v 0.4 4.3 -0.2
v 0.5 4.3 -0.2
v -0.3 4.4 0.2
v 0.3 4.4 0.2
v -0.5 4.4 0.1
v -0.4 4.4 0.1
v 0.4 4.4 0.1
v 0.5 4.4 0.1
v -0.5 4.4 -0.1
v -0.4 4.4 -0.1
v 0.4 4.4 -0.1
v 0.5 4.4 -0.1
v -0.3 4.4 -0.2
v 0.3 4.4 -0.2
v -0.4 4.5 0.3
v -0.3 4.5 0.3
v 0.3 4.5 0.3
v 0.4 4.5 0.3
v -0.4 4.5 0.2
v -0.3 4.5 0.2
v 0.3 4.5 0.2
v 0.4 4.5 0.2
v -0.4 4.6 0.2
v -0.3 4.6 0.2
v 0.3 4.6 0.2
v 0.4 4.6 0.2
v -0.4 4.6 0.1
v -0.3 4.6 0.1
v 0.3 4.6 0.1
v 0.4 4.6 0.1
v -0.3 4.6 -0.2
v 0.3 4.6 -0.2
v -0.3 4.6 -0.3
v 0.3 4.6 -0.3
v -0.4 4.7 0.1
v -0.3 4.7 0.1
v 0.3 4.7 0.1
v 0.4 4.7 0.1
v -0.4 4.7 -0.3
v -0.3 4.7 -0.3
v 0.3 4.7 -0.3
v 0.4 4.7 -0.3
v -0.3 4.7 -0.4
v 0.3 4.7 -0.4

# faces
f 3/2/1 2/2/1 1/2/1
f 6/2/1 3/2/1 1/2/1
f 6/2/1 4/2/1 3/2/1
f 7/2/1 6/2/1 5/2/1
f 8/2/1 4/2/1 6/2/1
f 8/2/1 6/2/1 7/2/1
f 9/2/1 4/2/1 8/2/1
f 10/2/1 4/2/1 9/2/1
f 11/2/1 9/2/1 8/2/1
f 12/2/1 9/2/1 11/2/1
f 13/2/1 9/2/1 12/2/1
f 14/2/1 9/2/1 13/2/1
f 15/2/1 13/2/1 12/2/1
f 16/2/1 13/2/1 15/2/1
f 20/2/1 18/2/1 17/2/1
f 21/2/1 18/2/1 20/2/1
f 23/2/1 22/2/1 21/2/1
f 24/2/1 22/2/1 23/2/1
f 25/2/1 20/2/1 19/2/1
f 26/2/1 20/2/1 25/2/1
f 29/3/1 28/3/1 27/3/1
f 33/3/1 29/3/1 27/3/1
f 34/1/1 30/1/1 29/1/1
f 34/3/1 29/3/1 33/3/1
f 35/1/1 30/1/1 34/1/1
f 38/1/1 32/1/1 31/1/1
f 39/1/1 36/1/1 35/1/1
f 40/1/1 38/1/1 37/1/1
f 41/3/1 35/3/1 34/3/1
f 42/1/1 39/1/1 35/1/1
f 42/3/1 35/3/1 41/3/1
f 42/1/1 40/1/1 39/1/1
f 43/1/1 40/1/1 42/1/1
f 44/3/1 43/3/1 42/3/1
f 45/1/1 40/1/1 43/1/1
f 45/3/1 43/3/1 44/3/1
f 46/1/1 32/1/1 38/1/1
f 46/1/1 40/1/1 45/1/1
f 46/1/1 38/1/1 40/1/1
f 47/3/1 46/3/1 45/3/1
f 48/3/1 46/3/1 47/3/1
f 53/2/1 50/2/1 49/2/1
f 54/2/1 50/2/1 53/2/1
f 55/2/1 52/2/1 51/2/1
f 56/2/1 52/2/1 55/2/1
f 61/3/1 58/3/1 57/3/1
f 62/3/1 58/3/1 61/3/1
f 63/3/1 60/3/1 59/3/1
f 64/3/1 60/3/1 63/3/1
f 65/3/1 60/3/1 64/3/1
f 70/3/1 67/3/1 66/3/1
f 71/3/1 67/3/1 70/3/1
f 72/3/1 69/3/1 68/3/1
f 73/3/1 69/3/1 72/3/1
f 76/3/1 75/3/1 74/3/1
f 77/3/1 75/3/1 76/3/1
f 80/3/1 79/3/1 78/3/1
f 81/3/1 79/3/1 80/3/1
f 84/3/1 83/3/1 82/3/1
f 85/3/1 83/3/1 84/3/1
f 88/3/1 87/3/1 86/3/1
f 89/3/1 87/3/1 88/3/1
f 91/3/1 90/3/1 89/3/1
f 93/3/1 91/3/1 89/3/1
f 94/1/1 92/1/1 91/1/1
f 94/3/1 91/3/1 93/3/1
f 95/1/1 92/1/1 94/1/1
f 96/3/1 95/3/1 94/3/1
f 97/1/1 92/1/1 95/1/1
f 97/3/1 95/3/1 96/3/1
f 98/1/1 92/1/1 97/1/1
f 100/3/1 99/3/1 98/3/1
f 100/3/1 98/3/1 97/3/1
f 101/3/1 99/3/1 100/3/1
f 102/3/2 103/3/2 104/3/2
f 104/3/2 103/3/2 105/3/2
f 105/3/2 106/3/2 107/3/2
f 105/3/2 107/3/2 109/3/2
f 107/1/2 108/1/2 110/1/2
f 109/3/2 107/3/2 110/3/2
f 110/1/2 108/1/2 111/1/2
f 110/3/2 111/3/2 112/3/2
f 111/1/2 108/1/2 113/1/2
f 112/3/2 111/3/2 113/3/2
f 113/1/2 108/1/2 114/1/2
f 114/3/2 115/3/2 116/3/2
f 113/3/2 114/3/2 116/3/2
f 116/3/2 115/3/2 117/3/2
f 118/3/2 119/3/2 120/3/2
f 120/3/2 119/3/2 121/3/2
f 122/3/2 123/3/2 124/3/2
f 124/3/2 123/3/2 125/3/2
f 126/3/2 127/3/2 128/3/2
f 128/3/2 127/3/2 129/3/2
f 130/3/2 131/3/2 134/3/2
f 134/3/2 131/3/2 135/3/2
f 132/3/2 133/3/2 136/3/2
f 136/3/2 133/3/2 137/3/2
f 138/2/2 139/2/2 142/2/2
f 142/2/2 139/2/2 143/2/2
f 140/2/2 141/2/2 144/2/2
f 144/2/2 141/2/2 145/2/2
f 146/3/2 147/3/2 150/3/2
f 150/3/2 147/3/2 151/3/2
f 148/3/2 149/3/2 152/3/2
f 152/3/2 149/3/2 153/3/2
f 153/3/2 149/3/2 154/3/2
f 155/2/2 156/2/2 158/2/2
f 158/2/2 156/2/2 159/2/2
f 159/2/2 160/2/2 161/2/2
f 161/2/2 160/2/2 162/2/2
f 157/2/2 158/2/2 163/2/2
f 163/2/2 158/2/2 164/2/2
f 165/3/2 166/3/2 167/3/2
f 165/3/2 167/3/2 171/3/2
f 167/1/2 168/1/2 172/1/2
f 171/3/2 167/3/2 172/3/2
f 172/1/2 168/1/2 173/1/2
f 169/1/2 170/1/2 176/1/2
f 173/1/2 174/1/2 177/1/2
f 175/1/2 176/1/2 178/1/2
f 172/3/2 173/3/2 179/3/2
f 173/1/2 177/1/2 180/1/2
f 179/3/2 173/3/2 180/3/2
f 177/1/2 178/1/2 180/1/2
f 180/1/2 178/1/2 181/1/2
f 180/3/2 181/3/2 182/3/2
f 181/1/2 178/1/2 183/1/2
f 182/3/2 181/3/2 183/3/2
f 176/1/2 170/1/2 184/1/2
f 183/1/2 178/1/2 184/1/2
f 178/1/2 176/1/2 184/1/2
f 183/3/2 184/3/2 185/3/2
f 185/3/2 184/3/2 186/3/2
f 187/2/2 188/2/2 189/2/2
f 187/2/2 189/2/2 192/2/2
f 189/2/2 190/2/2 192/2/2
f 191/2/2 192/2/2 193/2/2
f 192/2/2 190/2/2 194/2/2
f 193/2/2 192/2/2 194/2/2
f 194/2/2 190/2/2 195/2/2
f 195/2/2 190/2/2 196/2/2
f 194/2/2 195/2/2 197/2/2
f 197/2/2 195/2/2 198/2/2
f 198/2/2 195/2/2 199/2/2
f 199/2/2 195/2/2 200/2/2
f 198/2/2 199/2/2 201/2/2
f 201/2/2 199/2/2 202/2/2
f 206/3/3 204/3/3 203/3/3
f 207/3/3 204/3/3 206/3/3
f 209/3/3 206/3/3 205/3/3
f 210/3/3 206/3/3 209/3/3
f 211/3/3 209/3/3 208/3/3
f 212/3/3 209/3/3 211/3/3
f 215/3/3 214/3/3 213/3/3
f 216/3/3 214/3/3 215/3/3
f 218/3/3 217/3/3 216/3/3
f 219/3/3 217/3/3 218/3/3
f 221/3/3 220/3/3 219/3/3
f 222/3/3 220/3/3 221/3/3
f 226/2/3 224/2/3 223/2/3
f 227/2/3 224/2/3 226/2/3
f 228/2/3 224/2/3 227/2/3
f 232/2/3 226/2/3 225/2/3
f 232/2/3 227/2/3 226/2/3
f 233/2/3 227/2/3 232/2/3
f 234/2/3 227/2/3 233/2/3
f 235/3/3 230/3/3 229/3/3
f 236/3/3 230/3/3 235/3/3
f 237/2/3 232/2/3 231/2/3
f 237/2/3 233/2/3 232/2/3
f 238/2/3 233/2/3 237/2/3
f 239/1/3 235/1/3 234/1/3
f 241/1/3 239/1/3 238/1/3
f 242/1/3 241/1/3 240/1/3
f 243/1/3 239/1/3 241/1/3
f 243/1/3 241/1/3 242/1/3
f 245/1/3 239/1/3 243/1/3
f 246/1/3 235/1/3 239/1/3
f 246/1/3 239/1/3 245/1/3
f 247/2/3 245/2/3 244/2/3
f 248/2/3 245/2/3 247/2/3
f 249/2/3 245/2/3 248/2/3
f 250/1/3 235/1/3 246/1/3
f 251/1/3 235/1/3 250/1/3
f 253/2/3 249/2/3 248/2/3
f 253/2/3 250/2/3 249/2/3
f 254/2/3 250/2/3 253/2/3
f 255/2/3 250/2/3 254/2/3
f 257/3/3 252/3/3 251/3/3
f 258/3/3 252/3/3 257/3/3
f 259/2/3 256/2/3 255/2/3
f 259/2/3 255/2/3 254/2/3
f 260/2/3 256/2/3 259/2/3
f 266/2/3 262/2/3 261/2/3
f 267/2/3 262/2/3 266/2/3
f 268/2/3 264/2/3 263/2/3
f 269/2/3 264/2/3 268/2/3
f 272/2/3 266/2/3 265/2/3
f 273/2/3 266/2/3 272/2/3
f 276/3/3 271/3/3 270/3/3
f 277/3/3 271/3/3 276/3/3
f 280/1/3 275/1/3 274/1/3
f 281/1/3 275/1/3 280/1/3
f 284/2/3 279/2/3 278/2/3
f 285/2/3 279/2/3 284/2/3
f 289/3/3 283/3/3 282/3/3
f 290/3/3 283/3/3 289/3/3
f 291/2/3 286/2/3 285/2/3
f 292/2/3 286/2/3 291/2/3
f 293/2/3 288/2/3 287/2/3
f 294/2/3 288/2/3 293/2/3
f 297/2/3 296/2/3 295/2/3
f 298/2/3 296/2/3 297/2/3
f 301/3/3 300/3/3 299/3/3
f 302/3/3 300/3/3 301/3/3
f 307/3/3 304/3/3 303/3/3
f 308/3/3 304/3/3 307/3/3
f 309/2/3 306/2/3 305/2/3
f 310/2/3 306/2/3 309/2/3
f 313/1/3 312/1/3 311/1/3
f 314/1/3 312/1/3 313/1/3
f 317/3/3 316/3/3 315/3/3
f 318/3/3 316/3/3 317/3/3
f 319/2/4 320/2/4 321/2/4
f 321/2/4 320/2/4 322/2/4
f 323/2/4 324/2/4 325/2/4
f 325/2/4 324/2/4 326/2/4
f 327/2/4 328/2/4 332/2/4
f 332/2/4 328/2/4 333/2/4
f 329/2/4 330/2/4 334/2/4
f 334/2/4 330/2/4 335/2/4
f 331/2/4 332/2/4 336/2/4
f 336/2/4 332/2/4 337/2/4
f 338/2/4 339/2/4 340/2/4
f 340/2/4 339/2/4 341/2/4
f 341/2/4 342/2/4 345/2/4
f 345/2/4 342/2/4 346/2/4
f 343/2/4 344/2/4 347/2/4
f 347/2/4 344/2/4 348/2/4
f 349/2/4 350/2/4 352/2/4
f 352/2/4 350/2/4 353/2/4
f 353/2/4 350/2/4 354/2/4
f 351/2/4 352/2/4 358/2/4
f 352/2/4 353/2/4 358/2/4
f 358/2/4 353/2/4 359/2/4
f 354/1/4 355/1/4 360/1/4
f 359/2/4 353/2/4 360/2/4
f 353/1/4 354/1/4 360/1/4
f 360/1/4 355/1/4 361/1/4
f 355/3/4 356/3/4 362/3/4
f 361/1/4 355/1/4 362/1/4
f 362/3/4 356/3/4 363/3/4
f 358/2/4 359/2/4 364/2/4
f 357/2/4 358/2/4 364/2/4
f 364/2/4 359/2/4 365/2/4
f 365/2/4 359/2/4 366/2/4
f 360/1/4 361/1/4 367/1/4
f 366/2/4 359/2/4 367/2/4
f 359/1/4 360/1/4 367/1/4
f 367/1/4 361/1/4 368/1/4
f 368/1/4 361/1/4 369/1/4
f 365/2/4 366/2/4 370/2/4
f 364/1/4 365/1/4 370/1/4
f 367/1/4 368/1/4 371/1/4
f 370/2/4 366/2/4 371/2/4
f 366/1/4 367/1/4 371/1/4
f 371/1/4 368/1/4 372/1/4
f 372/1/4 368/1/4 373/1/4
f 364/1/4 370/1/4 374/1/4
f 370/1/4 371/1/4 374/1/4
f 371/1/4 372/1/4 374/1/4
f 374/1/4 372/1/4 375/1/4
f 375/1/4 372/1/4 376/1/4
f 364/1/4 374/1/4 378/1/4
f 374/2/4 375/2/4 379/2/4
f 378/1/4 374/1/4 379/1/4
f 376/1/4 377/1/4 380/1/4
f 379/2/4 375/2/4 380/2/4
f 375/1/4 376/1/4 380/1/4
f 380/1/4 377/1/4 381/1/4
f 381/1/4 377/1/4 382/1/4
f 378/2/4 379/2/4 384/2/4
f 379/2/4 380/2/4 384/2/4
f 380/2/4 381/2/4 384/2/4
f 384/2/4 381/2/4 385/2/4
f 381/1/4 382/1/4 386/1/4
f 385/2/4 381/2/4 386/2/4
f 382/1/4 383/1/4 386/1/4
f 386/1/4 383/1/4 387/1/4
f 387/1/4 383/1/4 388/1/4
f 385/2/4 386/2/4 391/2/4
f 386/2/4 387/2/4 391/2/4
f 391/2/4 387/2/4 392/2/4
f 387/1/4 388/1/4 393/1/4
f 392/2/4 387/2/4 393/2/4
f 388/1/4 389/1/4 393/1/4
f 393/1/4 389/1/4 394/1/4
f 389/3/4 390/3/4 395/3/4
f 394/1/4 389/1/4 395/1/4
f 395/3/4 390/3/4 396/3/4
f 393/2/4 394/2/4 397/2/4
f 392/2/4 393/2/4 397/2/4
f 397/2/4 394/2/4 398/2/4
f 399/3/4 400/3/4 402/3/4
f 402/3/4 400/3/4 403/3/4
f 401/3/4 402/3/4 405/3/4
f 402/2/4 403/2/4 406/2/4
f 405/3/4 402/3/4 406/3/4
f 404/3/4 405/3/4 407/3/4
f 405/2/4 406/2/4 408/2/4
f 407/3/4 405/3/4 408/3/4
f 406/2/4 403/2/4 409/2/4
f 408/2/4 406/2/4 409/2/4
f 408/3/4 409/3/4 410/3/4
f 409/2/4 403/2/4 411/2/4
f 410/3/4 409/3/4 411/3/4
f 403/3/4 400/3/4 412/3/4
f 411/2/4 403/2/4 412/2/4
f 411/3/4 412/3/4 413/3/4
f 412/3/4 400/3/4 414/3/4
f 413/3/4 412/3/4 414/3/4
f 420/3/5 416/3/5 415/3/5
f 421/3/5 416/3/5 420/3/5
f 422/3/5 418/3/5 417/3/5
f 423/3/5 418/3/5 422/3/5
f 426/2/5 421/2/5 420/2/5
f 426/2/5 420/2/5 419/2/5
f 427/1/5 422/1/5 421/1/5
f 427/2/5 421/2/5 426/2/5
f 428/2/5 424/2/5 423/2/5
f 428/1/5 422/1/5 427/1/5
f 428/2/5 423/2/5 422/2/5
f 429/2/5 424/2/5 428/2/5
f 431/2/5 427/2/5 426/2/5
f 431/2/5 430/2/5 429/2/5
f 431/2/5 429/2/5 428/2/5
f 431/2/5 428/2/5 427/2/5
f 431/2/5 426/2/5 425/2/5
f 432/2/5 430/2/5 431/2/5
f 433/2/5 430/2/5 432/2/5
f 434/2/5 430/2/5 433/2/5
f 435/2/5 430/2/5 434/2/5
f 436/2/5 430/2/5 435/2/5
f 437/2/5 433/2/5 432/2/5
f 438/1/5 434/1/5 433/1/5
f 438/2/5 433/2/5 437/2/5
f 439/2/5 435/2/5 434/2/5
f 439/1/5 434/1/5 438/1/5
f 440/2/5 435/2/5 439/2/5
f 446/2/5 442/2/5 441/2/5
f 447/2/5 442/2/5 446/2/5
f 448/2/5 444/2/5 443/2/5
f 449/2/5 444/2/5 448/2/5
f 451/2/5 446/2/5 445/2/5
f 452/2/5 446/2/5 451/2/5
f 455/2/5 450/2/5 449/2/5
f 456/2/5 450/2/5 455/2/5
f 457/2/5 453/2/5 452/2/5
f 458/2/5 453/2/5 457/2/5
f 459/2/5 455/2/5 454/2/5
f 460/2/5 455/2/5 459/2/5
f 465/2/5 462/2/5 461/2/5
f 466/2/5 462/2/5 465/2/5
f 467/2/5 464/2/5 463/2/5
f 468/2/5 464/2/5 467/2/5
f 471/3/5 470/3/5 469/3/5
f 472/3/5 470/3/5 471/3/5
f 477/2/5 474/2/5 473/2/5
f 478/2/5 474/2/5 477/2/5
f 479/2/5 476/2/5 475/2/5
f 480/2/5 476/2/5 479/2/5
f 485/3/5 482/3/5 481/3/5
f 486/3/5 482/3/5 485/3/5
f 487/3/5 484/3/5 483/3/5
f 488/3/5 484/3/5 487/3/5
f 493/3/5 490/3/5 489/3/5
f 494/3/5 490/3/5 493/3/5
f 495/3/5 492/3/5 491/3/5
f 496/3/5 492/3/5 495/3/5
f 501/3/5 498/3/5 497/3/5
f 502/3/5 498/3/5 501/3/5
f 503/3/5 500/3/5 499/3/5
f 504/3/5 500/3/5 503/3/5
f 509/3/5 506/3/5 505/3/5
f 510/3/5 506/3/5 509/3/5
f 511/3/5 508/3/5 507/3/5
f 512/3/5 508/3/5 511/3/5
f 513/3/6 514/3/6 517/3/6
f 517/3/6 514/3/6 518/3/6
f 515/3/6 516/3/6 519/3/6
f 519/3/6 516/3/6 520/3/6
f 521/3/6 522/3/6 525/3/6
f 525/3/6 522/3/6 526/3/6
f 523/3/6 524/3/6 527/3/6
f 527/3/6 524/3/6 528/3/6
f 529/2/6 530/2/6 533/2/6
f 533/2/6 530/2/6 534/2/6
f 531/2/6 532/2/6 535/2/6
f 535/2/6 532/2/6 536/2/6
f 537/2/6 538/2/6 541/2/6
f 541/2/6 538/2/6 542/2/6
f 539/2/6 540/2/6 543/2/6
f 543/2/6 540/2/6 544/2/6
f 545/3/6 546/3/6 549/3/6
f 549/3/6 546/3/6 550/3/6
f 547/3/6 548/3/6 551/3/6
f 551/3/6 548/3/6 552/3/6
f 550/1/6 551/1/6 555/1/6
f 555/1/6 551/1/6 556/1/6
f 553/2/6 554/2/6 559/2/6
f 559/2/6 554/2/6 560/2/6
f 557/2/6 558/2/6 561/2/6
f 561/2/6 558/2/6 562/2/6
f 563/2/6 564/2/6 567/2/6
f 567/2/6 564/2/6 568/2/6
f 565/2/6 566/2/6 569/2/6
f 569/2/6 566/2/6 570/2/6
f 573/2/6 574/2/6 577/2/6
f 577/2/6 574/2/6 578/2/6
f 575/2/6 576/2/6 579/2/6
f 579/2/6 576/2/6 580/2/6
f 571/1/6 572/1/6 581/1/6
f 581/1/6 572/1/6 582/1/6
f 583/3/6 584/3/6 587/3/6
f 587/3/6 584/3/6 588/3/6
f 585/3/6 586/3/6 589/3/6
f 589/3/6 586/3/6 590/3/6
f 591/3/6 592/3/6 595/3/6
f 595/3/6 592/3/6 596/3/6
f 593/3/6 594/3/6 597/3/6
f 597/3/6 594/3/6 598/3/6
f 599/1/6 600/1/6 601/1/6
f 601/1/6 600/1/6 602/1/6
f 603/3/6 604/3/6 607/3/6
f 607/3/6 604/3/6 608/3/6
f 605/3/6 606/3/6 609/3/6
f 609/3/6 606/3/6 610/3/6
f 608/3/6 609/3/6 611/3/6
f 611/3/6 609/3/6 612/3/6
