# MagicaVoxel @ Ephtracy

# group
o 

# material
mtllib Character-12.mtl
usemtl palette

# normals
vn -1 0 0
vn 1 0 0
vn 0 0 1
vn 0 0 -1
vn 0 -1 0
vn 0 1 0

# texcoords
vt 0.935547 0.5
vt 0.966797 0.5

# verts
v -0.4 4.9 -0.1
v -0.4 4.9 -0.3
v -0.4 5 0.2
v -0.4 5 0.1
v -0.4 5.1 0.3
v -0.4 5.1 0.2
v -0.4 5.1 0.1
v -0.4 5.1 -0.1
v -0.4 5.2 0.3
v -0.4 5.2 -0.3
v -0.3 4.8 0.2
v -0.3 4.8 0
v -0.3 4.8 -0.2
v -0.3 4.8 -0.4
v -0.3 4.9 0
v -0.3 4.9 -0.1
v -0.3 4.9 -0.2
v -0.3 4.9 -0.3
v -0.3 5 0.2
v -0.3 5 0.1
v -0.3 5.1 0.1
v -0.3 5.1 -0.1
v -0.3 5.2 0.3
v -0.3 5.2 -0.3
v -0.3 5.3 0.3
v -0.3 5.3 -0.4
v -0.2 4.6 0.2
v -0.2 4.6 0
v -0.2 4.7 0.3
v -0.2 4.7 0.2
v -0.2 4.7 0
v -0.2 4.7 -0.3
v -0.2 4.8 0.2
v -0.2 4.8 0
v -0.2 4.8 -0.2
v -0.2 4.8 -0.3
v -0.2 4.9 0
v -0.2 4.9 -0.2
v -0.2 4.9 -0.4
v -0.2 4.9 -0.5
v -0.2 5.2 0.4
v -0.2 5.2 0.3
v -0.2 5.2 0.2
v -0.2 5.2 -0.4
v -0.2 5.2 -0.5
v -0.2 5.3 0.3
v -0.2 5.3 -0.3
v -0.2 5.4 0.4
v -0.2 5.4 -0.3
v -0.1 4.4 0.1
v -0.1 4.4 -0.2
v -0.1 4.6 0.3
v -0.1 4.6 0.2
v -0.1 4.6 0.1
v -0.1 4.6 0
v -0.1 4.7 0.3
v -0.1 4.7 0.2
v -0.1 4.7 0
v -0.1 4.7 -0.2
v -0.1 4.8 -0.4
v -0.1 4.8 -0.5
v -0.1 4.9 -0.4
v -0.1 4.9 -0.5
v -0.1 5.2 -0.4
v -0.1 5.2 -0.5
v -0.1 5.3 -0.3
v -0.1 5.3 -0.4
v -0.1 5.3 -0.5
v -0.1 5.4 -0.3
v -0.1 5.4 -0.4
v 0.1 5.2 0.4
v 0.1 5.2 0.3
v 0.1 5.3 0.4
v 0.1 5.3 0.3
v 0.3 5.1 0.3
v 0.3 5.1 0.2
v 0.3 5.2 0.3
v 0.3 5.2 0.2
v -0.3 5.1 0.3
v -0.3 5.1 0.2
v -0.3 5.2 0.3
v -0.3 5.2 0.2
v -0.1 5.2 0.4
v -0.1 5.2 0.3
v -0.1 5.3 0.4
v -0.1 5.3 0.3
v 0.1 4.4 0.1
v 0.1 4.4 -0.2
v 0.1 4.6 0.3
v 0.1 4.6 0.2
v 0.1 4.6 0.1
v 0.1 4.6 0
v 0.1 4.7 0.3
v 0.1 4.7 0.2
v 0.1 4.7 0
v 0.1 4.7 -0.2
v 0.1 4.8 -0.4
v 0.1 4.8 -0.5
v 0.1 4.9 -0.4
v 0.1 4.9 -0.5
v 0.1 5.2 -0.4
v 0.1 5.2 -0.5
v 0.1 5.3 -0.3
v 0.1 5.3 -0.4
v 0.1 5.3 -0.5
v 0.1 5.4 -0.3
v 0.1 5.4 -0.4
v 0.2 4.6 0.2
v 0.2 4.6 0
v 0.2 4.7 0.3
v 0.2 4.7 0.2
v 0.2 4.7 0
v 0.2 4.7 -0.3
v 0.2 4.8 0.2
v 0.2 4.8 0
v 0.2 4.8 -0.2
v 0.2 4.8 -0.3
v 0.2 4.9 0
v 0.2 4.9 -0.2
v 0.2 4.9 -0.4
v 0.2 4.9 -0.5
v 0.2 5.2 0.4
v 0.2 5.2 0.3
v 0.2 5.2 0.2
v 0.2 5.2 -0.4
v 0.2 5.2 -0.5
v 0.2 5.3 0.3
v 0.2 5.3 -0.3
v 0.2 5.4 0.4
v 0.2 5.4 -0.3
v 0.3 4.8 0.2
v 0.3 4.8 0
v 0.3 4.8 -0.2
v 0.3 4.8 -0.4
v 0.3 4.9 0
v 0.3 4.9 -0.1
v 0.3 4.9 -0.2
v 0.3 4.9 -0.3
v 0.3 5 0.2
v 0.3 5 0.1
v 0.3 5.1 0.1
v 0.3 5.1 -0.1
v 0.3 5.2 0.3
v 0.3 5.2 -0.3
v 0.3 5.3 0.3
v 0.3 5.3 -0.4
v 0.4 4.9 -0.1
v 0.4 4.9 -0.3
v 0.4 5 0.2
v 0.4 5 0.1
v 0.4 5.1 0.3
v 0.4 5.1 0.2
v 0.4 5.1 0.1
v 0.4 5.1 -0.1
v 0.4 5.2 0.3
v 0.4 5.2 -0.3
v -0.2 5.2 0.4
v -0.2 5.4 0.4
v -0.1 5.2 0.4
v -0.1 5.3 0.4
v 0.1 5.2 0.4
v 0.1 5.3 0.4
v 0.2 5.2 0.4
v 0.2 5.4 0.4
v -0.4 5.1 0.3
v -0.4 5.2 0.3
v -0.3 5.1 0.3
v -0.3 5.2 0.3
v -0.3 5.3 0.3
v -0.2 4.7 0.3
v -0.2 5.2 0.3
v -0.2 5.3 0.3
v -0.1 4.6 0.3
v -0.1 4.7 0.3
v -0.1 5.2 0.3
v -0.1 5.3 0.3
v 0.1 4.6 0.3
v 0.1 4.7 0.3
v 0.1 5.2 0.3
v 0.1 5.3 0.3
v 0.2 4.7 0.3
v 0.2 5.2 0.3
v 0.2 5.3 0.3
v 0.3 5.1 0.3
v 0.3 5.2 0.3
v 0.3 5.3 0.3
v 0.4 5.1 0.3
v 0.4 5.2 0.3
v -0.4 5 0.2
v -0.4 5.1 0.2
v -0.3 4.8 0.2
v -0.3 5 0.2
v -0.3 5.1 0.2
v -0.3 5.2 0.2
v -0.2 4.6 0.2
v -0.2 4.7 0.2
v -0.2 4.8 0.2
v -0.2 5.2 0.2
v -0.1 4.6 0.2
v -0.1 4.7 0.2
v 0.1 4.6 0.2
v 0.1 4.7 0.2
v 0.2 4.6 0.2
v 0.2 4.7 0.2
v 0.2 4.8 0.2
v 0.2 5.2 0.2
v 0.3 4.8 0.2
v 0.3 5 0.2
v 0.3 5.1 0.2
v 0.3 5.2 0.2
v 0.4 5 0.2
v 0.4 5.1 0.2
v -0.1 4.4 0.1
v -0.1 4.6 0.1
v 0.1 4.4 0.1
v 0.1 4.6 0.1
v -0.4 4.9 -0.1
v -0.4 5.1 -0.1
v -0.3 4.9 -0.1
v -0.3 5.1 -0.1
v 0.3 4.9 -0.1
v 0.3 5.1 -0.1
v 0.4 4.9 -0.1
v 0.4 5.1 -0.1
v -0.3 4.8 -0.2
v -0.3 4.9 -0.2
v -0.2 4.8 -0.2
v -0.2 4.9 -0.2
v 0.2 4.8 -0.2
v 0.2 4.9 -0.2
v 0.3 4.8 -0.2
v 0.3 4.9 -0.2
v -0.4 5 0.1
v -0.4 5.1 0.1
v -0.3 5 0.1
v -0.3 5.1 0.1
v 0.3 5 0.1
v 0.3 5.1 0.1
v 0.4 5 0.1
v 0.4 5.1 0.1
v -0.3 4.8 0
v -0.3 4.9 0
v -0.2 4.6 0
v -0.2 4.7 0
v -0.2 4.8 0
v -0.2 4.9 0
v -0.1 4.6 0
v -0.1 4.7 0
v 0.1 4.6 0
v 0.1 4.7 0
v 0.2 4.6 0
v 0.2 4.7 0
v 0.2 4.8 0
v 0.2 4.9 0
v 0.3 4.8 0
v 0.3 4.9 0
v -0.1 4.4 -0.2
v -0.1 4.7 -0.2
v 0.1 4.4 -0.2
v 0.1 4.7 -0.2
v -0.4 4.9 -0.3
v -0.4 5.2 -0.3
v -0.3 4.9 -0.3
v -0.3 5.2 -0.3
v -0.2 4.7 -0.3
v -0.2 4.8 -0.3
v -0.2 5.3 -0.3
v -0.2 5.4 -0.3
v -0.1 4.8 -0.3
v -0.1 5.3 -0.3
v -0.1 5.4 -0.3
v 0.1 4.8 -0.3
v 0.1 5.3 -0.3
v 0.1 5.4 -0.3
v 0.2 4.7 -0.3
v 0.2 4.8 -0.3
v 0.2 5.3 -0.3
v 0.2 5.4 -0.3
v 0.3 4.9 -0.3
v 0.3 5.2 -0.3
v 0.4 4.9 -0.3
v 0.4 5.2 -0.3
v -0.3 4.8 -0.4
v -0.3 5.3 -0.4
v -0.2 4.9 -0.4
v -0.2 5.2 -0.4
v -0.1 4.8 -0.4
v -0.1 4.9 -0.4
v -0.1 5.2 -0.4
v -0.1 5.3 -0.4
v -0.1 5.4 -0.4
v 0.1 4.8 -0.4
v 0.1 4.9 -0.4
v 0.1 5.2 -0.4
v 0.1 5.3 -0.4
v 0.1 5.4 -0.4
v 0.2 4.9 -0.4
v 0.2 5.2 -0.4
v 0.3 4.8 -0.4
v 0.3 5.3 -0.4
v -0.2 4.9 -0.5
v -0.2 5.2 -0.5
v -0.1 4.8 -0.5
v -0.1 4.9 -0.5
v -0.1 5.2 -0.5
v -0.1 5.3 -0.5
v 0.1 4.8 -0.5
v 0.1 4.9 -0.5
v 0.1 5.2 -0.5
v 0.1 5.3 -0.5
v 0.2 4.9 -0.5
v 0.2 5.2 -0.5
v -0.1 4.4 0.1
v 0.1 4.4 0.1
v -0.1 4.4 -0.2
v 0.1 4.4 -0.2
v -0.1 4.6 0.3
v 0.1 4.6 0.3
v -0.2 4.6 0.2
v -0.1 4.6 0.2
v 0.1 4.6 0.2
v 0.2 4.6 0.2
v -0.1 4.6 0.1
v 0.1 4.6 0.1
v -0.2 4.6 0
v -0.1 4.6 0
v 0.1 4.6 0
v 0.2 4.6 0
v -0.2 4.7 0.3
v -0.1 4.7 0.3
v 0.1 4.7 0.3
v 0.2 4.7 0.3
v -0.2 4.7 0.2
v -0.1 4.7 0.2
v 0.1 4.7 0.2
v 0.2 4.7 0.2
v -0.2 4.7 0
v -0.1 4.7 0
v 0.1 4.7 0
v 0.2 4.7 0
v -0.1 4.7 -0.2
v 0.1 4.7 -0.2
v -0.2 4.7 -0.3
v 0.2 4.7 -0.3
v -0.3 4.8 0.2
v -0.2 4.8 0.2
v 0.2 4.8 0.2
v 0.3 4.8 0.2
v -0.3 4.8 0
v -0.2 4.8 0
v 0.2 4.8 0
v 0.3 4.8 0
v -0.3 4.8 -0.2
v -0.2 4.8 -0.2
v 0.2 4.8 -0.2
v 0.3 4.8 -0.2
v -0.2 4.8 -0.3
v -0.1 4.8 -0.3
v 0.1 4.8 -0.3
v 0.2 4.8 -0.3
v -0.3 4.8 -0.4
v -0.1 4.8 -0.4
v 0.1 4.8 -0.4
v 0.3 4.8 -0.4
v -0.1 4.8 -0.5
v 0.1 4.8 -0.5
v -0.3 4.9 0
v -0.2 4.9 0
v 0.2 4.9 0
v 0.3 4.9 0
v -0.4 4.9 -0.1
v -0.3 4.9 -0.1
v 0.3 4.9 -0.1
v 0.4 4.9 -0.1
v -0.3 4.9 -0.2
v -0.2 4.9 -0.2
v 0.2 4.9 -0.2
v 0.3 4.9 -0.2
v -0.4 4.9 -0.3
v -0.3 4.9 -0.3
v 0.3 4.9 -0.3
v 0.4 4.9 -0.3
v -0.2 4.9 -0.4
v -0.1 4.9 -0.4
v 0.1 4.9 -0.4
v 0.2 4.9 -0.4
v -0.2 4.9 -0.5
v -0.1 4.9 -0.5
v 0.1 4.9 -0.5
v 0.2 4.9 -0.5
v -0.4 5 0.2
v -0.3 5 0.2
v 0.3 5 0.2
v 0.4 5 0.2
v -0.4 5 0.1
v -0.3 5 0.1
v 0.3 5 0.1
v 0.4 5 0.1
v -0.4 5.1 0.3
v -0.3 5.1 0.3
v 0.3 5.1 0.3
v 0.4 5.1 0.3
v -0.4 5.1 0.2
v -0.3 5.1 0.2
v 0.3 5.1 0.2
v 0.4 5.1 0.2
v -0.4 5.1 0.1
v -0.3 5.1 0.1
v 0.3 5.1 0.1
v 0.4 5.1 0.1
v -0.4 5.1 -0.1
v -0.3 5.1 -0.1
v 0.3 5.1 -0.1
v 0.4 5.1 -0.1
v -0.2 5.2 0.4
v -0.1 5.2 0.4
v 0.1 5.2 0.4
v 0.2 5.2 0.4
v -0.3 5.2 0.3
v -0.2 5.2 0.3
v -0.1 5.2 0.3
v 0.1 5.2 0.3
v 0.2 5.2 0.3
v 0.3 5.2 0.3
v -0.3 5.2 0.2
v -0.2 5.2 0.2
v 0.2 5.2 0.2
v 0.3 5.2 0.2
v -0.1 5.3 0.4
v 0.1 5.3 0.4
v -0.1 5.3 0.3
v 0.1 5.3 0.3
v -0.4 5.2 0.3
v -0.3 5.2 0.3
v 0.3 5.2 0.3
v 0.4 5.2 0.3
v -0.4 5.2 -0.3
v -0.3 5.2 -0.3
v 0.3 5.2 -0.3
v 0.4 5.2 -0.3
v -0.2 5.2 -0.4
v -0.1 5.2 -0.4
v 0.1 5.2 -0.4
v 0.2 5.2 -0.4
v -0.2 5.2 -0.5
v -0.1 5.2 -0.5
v 0.1 5.2 -0.5
v 0.2 5.2 -0.5
v -0.3 5.3 0.3
v -0.2 5.3 0.3
v 0.2 5.3 0.3
v 0.3 5.3 0.3
v -0.2 5.3 -0.3
v -0.1 5.3 -0.3
v 0.1 5.3 -0.3
v 0.2 5.3 -0.3
v -0.3 5.3 -0.4
v -0.1 5.3 -0.4
v 0.1 5.3 -0.4
v 0.3 5.3 -0.4
v -0.1 5.3 -0.5
v 0.1 5.3 -0.5
v -0.2 5.4 0.4
v 0.2 5.4 0.4
v -0.2 5.4 -0.3
v -0.1 5.4 -0.3
v 0.1 5.4 -0.3
v 0.2 5.4 -0.3
v -0.1 5.4 -0.4
v 0.1 5.4 -0.4

# faces
f 6/2/1 4/2/1 3/2/1
f 7/2/1 4/2/1 6/2/1
f 8/2/1 2/2/1 1/2/1
f 9/2/1 7/2/1 6/2/1
f 9/2/1 8/2/1 7/2/1
f 9/2/1 6/2/1 5/2/1
f 10/2/1 2/2/1 8/2/1
f 10/2/1 8/2/1 9/2/1
f 15/1/1 12/1/1 11/1/1
f 17/2/1 14/2/1 13/2/1
f 18/2/1 14/2/1 17/2/1
f 19/1/1 16/1/1 15/1/1
f 19/1/1 15/1/1 11/1/1
f 20/1/1 16/1/1 19/1/1
f 21/1/1 16/1/1 20/1/1
f 22/1/1 16/1/1 21/1/1
f 24/2/1 14/2/1 18/2/1
f 25/2/1 24/2/1 23/2/1
f 26/2/1 14/2/1 24/2/1
f 26/2/1 24/2/1 25/2/1
f 30/1/1 28/1/1 27/1/1
f 31/1/1 28/1/1 30/1/1
f 33/1/1 30/1/1 29/1/1
f 33/1/1 32/1/1 31/1/1
f 33/1/1 31/1/1 30/1/1
f 34/1/1 32/1/1 33/1/1
f 35/1/1 32/1/1 34/1/1
f 36/1/1 32/1/1 35/1/1
f 37/1/1 35/1/1 34/1/1
f 38/1/1 35/1/1 37/1/1
f 42/1/1 33/1/1 29/1/1
f 43/1/1 33/1/1 42/1/1
f 44/2/1 40/2/1 39/2/1
f 45/2/1 40/2/1 44/2/1
f 46/2/1 42/2/1 41/2/1
f 48/2/1 46/2/1 41/2/1
f 48/2/1 47/2/1 46/2/1
f 49/2/1 47/2/1 48/2/1
f 54/1/1 51/1/1 50/1/1
f 55/1/1 51/1/1 54/1/1
f 56/1/1 53/1/1 52/1/1
f 57/1/1 53/1/1 56/1/1
f 58/1/1 51/1/1 55/1/1
f 59/1/1 51/1/1 58/1/1
f 62/2/1 61/2/1 60/2/1
f 63/2/1 61/2/1 62/2/1
f 67/2/1 65/2/1 64/2/1
f 68/2/1 65/2/1 67/2/1
f 69/2/1 67/2/1 66/2/1
f 70/2/1 67/2/1 69/2/1
f 73/2/1 72/2/1 71/2/1
f 74/2/1 72/2/1 73/2/1
f 77/2/1 76/2/1 75/2/1
f 78/2/1 76/2/1 77/2/1
f 79/2/2 80/2/2 81/2/2
f 81/2/2 80/2/2 82/2/2
f 83/2/2 84/2/2 85/2/2
f 85/2/2 84/2/2 86/2/2
f 87/1/2 88/1/2 91/1/2
f 91/1/2 88/1/2 92/1/2
f 89/1/2 90/1/2 93/1/2
f 93/1/2 90/1/2 94/1/2
f 92/1/2 88/1/2 95/1/2
f 95/1/2 88/1/2 96/1/2
f 97/2/2 98/2/2 99/2/2
f 99/2/2 98/2/2 100/2/2
f 101/2/2 102/2/2 104/2/2
f 104/2/2 102/2/2 105/2/2
f 103/2/2 104/2/2 106/2/2
f 106/2/2 104/2/2 107/2/2
f 108/1/2 109/1/2 111/1/2
f 111/1/2 109/1/2 112/1/2
f 110/1/2 111/1/2 114/1/2
f 112/1/2 113/1/2 114/1/2
f 111/1/2 112/1/2 114/1/2
f 114/1/2 113/1/2 115/1/2
f 115/1/2 113/1/2 116/1/2
f 116/1/2 113/1/2 117/1/2
f 115/1/2 116/1/2 118/1/2
f 118/1/2 116/1/2 119/1/2
f 110/1/2 114/1/2 123/1/2
f 123/1/2 114/1/2 124/1/2
f 120/2/2 121/2/2 125/2/2
f 125/2/2 121/2/2 126/2/2
f 122/2/2 123/2/2 127/2/2
f 122/2/2 127/2/2 129/2/2
f 127/2/2 128/2/2 129/2/2
f 129/2/2 128/2/2 130/2/2
f 131/1/2 132/1/2 135/1/2
f 133/2/2 134/2/2 137/2/2
f 137/2/2 134/2/2 138/2/2
f 135/1/2 136/1/2 139/1/2
f 131/1/2 135/1/2 139/1/2
f 139/1/2 136/1/2 140/1/2
f 140/1/2 136/1/2 141/1/2
f 141/1/2 136/1/2 142/1/2
f 138/2/2 134/2/2 144/2/2
f 143/2/2 144/2/2 145/2/2
f 144/2/2 134/2/2 146/2/2
f 145/2/2 144/2/2 146/2/2
f 149/2/2 150/2/2 152/2/2
f 152/2/2 150/2/2 153/2/2
f 147/2/2 148/2/2 154/2/2
f 152/2/2 153/2/2 155/2/2
f 153/2/2 154/2/2 155/2/2
f 151/2/2 152/2/2 155/2/2
f 154/2/2 148/2/2 156/2/2
f 155/2/2 154/2/2 156/2/2
f 159/2/3 158/2/3 157/2/3
f 160/2/3 158/2/3 159/2/3
f 162/2/3 158/2/3 160/2/3
f 163/2/3 162/2/3 161/2/3
f 164/2/3 158/2/3 162/2/3
f 164/2/3 162/2/3 163/2/3
f 167/2/3 166/2/3 165/2/3
f 168/2/3 166/2/3 167/2/3
f 171/2/3 169/2/3 168/2/3
f 172/2/3 169/2/3 171/2/3
f 174/1/3 171/1/3 170/1/3
f 175/1/3 171/1/3 174/1/3
f 177/1/3 174/1/3 173/1/3
f 177/1/3 176/1/3 175/1/3
f 177/1/3 175/1/3 174/1/3
f 178/1/3 176/1/3 177/1/3
f 179/1/3 176/1/3 178/1/3
f 180/1/3 176/1/3 179/1/3
f 181/1/3 179/1/3 178/1/3
f 182/1/3 179/1/3 181/1/3
f 185/2/3 183/2/3 182/2/3
f 186/2/3 183/2/3 185/2/3
f 187/2/3 185/2/3 184/2/3
f 188/2/3 185/2/3 187/2/3
f 192/2/3 190/2/3 189/2/3
f 193/2/3 190/2/3 192/2/3
f 197/1/3 192/1/3 191/1/3
f 197/1/3 193/1/3 192/1/3
f 197/1/3 194/1/3 193/1/3
f 198/1/3 194/1/3 197/1/3
f 199/1/3 196/1/3 195/1/3
f 200/1/3 196/1/3 199/1/3
f 203/1/3 202/1/3 201/1/3
f 204/1/3 202/1/3 203/1/3
f 207/1/3 206/1/3 205/1/3
f 208/1/3 206/1/3 207/1/3
f 209/1/3 206/1/3 208/1/3
f 210/1/3 206/1/3 209/1/3
f 211/2/3 209/2/3 208/2/3
f 212/2/3 209/2/3 211/2/3
f 215/1/3 214/1/3 213/1/3
f 216/1/3 214/1/3 215/1/3
f 219/2/3 218/2/3 217/2/3
f 220/2/3 218/2/3 219/2/3
f 223/2/3 222/2/3 221/2/3
f 224/2/3 222/2/3 223/2/3
f 227/2/3 226/2/3 225/2/3
f 228/2/3 226/2/3 227/2/3
f 231/2/3 230/2/3 229/2/3
f 232/2/3 230/2/3 231/2/3
f 233/2/4 234/2/4 235/2/4
f 235/2/4 234/2/4 236/2/4
f 237/2/4 238/2/4 239/2/4
f 239/2/4 238/2/4 240/2/4
f 241/1/4 242/1/4 245/1/4
f 245/1/4 242/1/4 246/1/4
f 243/1/4 244/1/4 247/1/4
f 247/1/4 244/1/4 248/1/4
f 249/1/4 250/1/4 251/1/4
f 251/1/4 250/1/4 252/1/4
f 253/1/4 254/1/4 255/1/4
f 255/1/4 254/1/4 256/1/4
f 257/1/4 258/1/4 259/1/4
f 259/1/4 258/1/4 260/1/4
f 261/2/4 262/2/4 263/2/4
f 263/2/4 262/2/4 264/2/4
f 265/1/4 266/1/4 269/1/4
f 267/2/4 268/2/4 270/2/4
f 270/2/4 268/2/4 271/2/4
f 265/1/4 269/1/4 272/1/4
f 265/1/4 272/1/4 275/1/4
f 275/1/4 272/1/4 276/1/4
f 273/2/4 274/2/4 277/2/4
f 277/2/4 274/2/4 278/2/4
f 279/2/4 280/2/4 281/2/4
f 281/2/4 280/2/4 282/2/4
f 283/2/4 284/2/4 285/2/4
f 285/2/4 284/2/4 286/2/4
f 283/2/4 285/2/4 287/2/4
f 287/2/4 285/2/4 288/2/4
f 286/2/4 284/2/4 289/2/4
f 289/2/4 284/2/4 290/2/4
f 290/2/4 291/2/4 295/2/4
f 295/2/4 291/2/4 296/2/4
f 292/2/4 293/2/4 297/2/4
f 294/2/4 295/2/4 298/2/4
f 292/2/4 297/2/4 299/2/4
f 297/2/4 298/2/4 299/2/4
f 298/2/4 295/2/4 300/2/4
f 299/2/4 298/2/4 300/2/4
f 301/2/4 302/2/4 304/2/4
f 304/2/4 302/2/4 305/2/4
f 303/2/4 304/2/4 307/2/4
f 305/2/4 306/2/4 307/2/4
f 304/2/4 305/2/4 307/2/4
f 307/2/4 306/2/4 308/2/4
f 308/2/4 306/2/4 309/2/4
f 309/2/4 306/2/4 310/2/4
f 308/2/4 309/2/4 311/2/4
f 311/2/4 309/2/4 312/2/4
f 315/1/5 314/1/5 313/1/5
f 316/1/5 314/1/5 315/1/5
f 320/1/5 318/1/5 317/1/5
f 321/1/5 318/1/5 320/1/5
f 323/1/5 320/1/5 319/1/5
f 323/1/5 322/1/5 321/1/5
f 323/1/5 321/1/5 320/1/5
f 324/1/5 322/1/5 323/1/5
f 325/1/5 323/1/5 319/1/5
f 326/1/5 323/1/5 325/1/5
f 327/1/5 322/1/5 324/1/5
f 328/1/5 322/1/5 327/1/5
f 333/1/5 330/1/5 329/1/5
f 334/1/5 330/1/5 333/1/5
f 335/1/5 332/1/5 331/1/5
f 336/1/5 332/1/5 335/1/5
f 341/1/5 338/1/5 337/1/5
f 342/1/5 340/1/5 339/1/5
f 343/1/5 341/1/5 337/1/5
f 343/1/5 342/1/5 341/1/5
f 344/1/5 340/1/5 342/1/5
f 344/1/5 342/1/5 343/1/5
f 349/1/5 346/1/5 345/1/5
f 350/1/5 346/1/5 349/1/5
f 351/1/5 348/1/5 347/1/5
f 352/1/5 348/1/5 351/1/5
f 357/2/5 354/2/5 353/2/5
f 360/2/5 356/2/5 355/2/5
f 361/2/5 357/2/5 353/2/5
f 361/2/5 358/2/5 357/2/5
f 362/1/5 359/1/5 358/1/5
f 362/2/5 358/2/5 361/2/5
f 363/2/5 360/2/5 359/2/5
f 363/1/5 359/1/5 362/1/5
f 364/2/5 356/2/5 360/2/5
f 364/2/5 360/2/5 363/2/5
f 365/2/5 363/2/5 362/2/5
f 366/2/5 363/2/5 365/2/5
f 372/1/5 368/1/5 367/1/5
f 373/1/5 370/1/5 369/1/5
f 375/2/5 372/2/5 371/2/5
f 375/1/5 368/1/5 372/1/5
f 376/1/5 368/1/5 375/1/5
f 377/1/5 373/1/5 369/1/5
f 378/2/5 374/2/5 373/2/5
f 378/1/5 373/1/5 377/1/5
f 379/2/5 375/2/5 371/2/5
f 380/2/5 375/2/5 379/2/5
f 381/2/5 374/2/5 378/2/5
f 382/2/5 374/2/5 381/2/5
f 387/2/5 384/2/5 383/2/5
f 388/2/5 384/2/5 387/2/5
f 389/2/5 386/2/5 385/2/5
f 390/2/5 386/2/5 389/2/5
f 395/2/5 392/2/5 391/2/5
f 396/2/5 392/2/5 395/2/5
f 397/2/5 394/2/5 393/2/5
f 398/2/5 394/2/5 397/2/5
f 403/2/5 400/2/5 399/2/5
f 404/2/5 400/2/5 403/2/5
f 405/2/5 402/2/5 401/2/5
f 406/2/5 402/2/5 405/2/5
f 411/2/5 408/2/5 407/2/5
f 412/2/5 408/2/5 411/2/5
f 413/2/5 410/2/5 409/2/5
f 414/2/5 410/2/5 413/2/5
f 420/2/5 416/2/5 415/2/5
f 421/2/5 416/2/5 420/2/5
f 422/2/5 418/2/5 417/2/5
f 423/2/5 418/2/5 422/2/5
f 425/2/5 420/2/5 419/2/5
f 426/2/5 420/2/5 425/2/5
f 427/2/5 424/2/5 423/2/5
f 428/2/5 424/2/5 427/2/5
f 431/2/5 430/2/5 429/2/5
f 432/2/5 430/2/5 431/2/5
f 433/2/6 434/2/6 437/2/6
f 437/2/6 434/2/6 438/2/6
f 435/2/6 436/2/6 439/2/6
f 439/2/6 436/2/6 440/2/6
f 441/2/6 442/2/6 445/2/6
f 445/2/6 442/2/6 446/2/6
f 443/2/6 444/2/6 447/2/6
f 447/2/6 444/2/6 448/2/6
f 449/2/6 450/2/6 453/2/6
f 451/2/6 452/2/6 456/2/6
f 453/2/6 454/2/6 457/2/6
f 449/2/6 453/2/6 457/2/6
f 457/2/6 454/2/6 458/2/6
f 455/2/6 456/2/6 459/2/6
f 456/2/6 452/2/6 460/2/6
f 459/2/6 456/2/6 460/2/6
f 458/2/6 459/2/6 461/2/6
f 461/2/6 459/2/6 462/2/6
f 463/2/6 464/2/6 465/2/6
f 465/2/6 464/2/6 466/2/6
f 466/2/6 464/2/6 467/2/6
f 467/2/6 464/2/6 468/2/6
f 466/2/6 467/2/6 469/2/6
f 469/2/6 467/2/6 470/2/6
