# MagicaVoxel @ Ephtracy

# group
o 

# material
mtllib Character-0.mtl
usemtl palette

# normals
vn 1 0 0
vn -1 0 0
vn 0 0 1
vn 0 0 -1
vn 0 -1 0
vn 0 1 0

# texcoords
vt 0.986328 0.5

# verts
v -0.6 2.2 0.2
v -0.6 2.2 -0.1
v -0.6 2.3 0.1
v -0.6 2.3 -0.1
v -0.6 2.4 0.2
v -0.6 2.4 0.1
v -0.7 2.1 0.2
v -0.7 2.1 -0.1
v -0.7 2.2 0.2
v -0.7 2.2 -0.1
v -0.8 2.2 0.2
v -0.8 2.2 -0.1
v -0.8 2.3 0.2
v -0.8 2.3 0.1
v -0.8 2.4 0.1
v -0.8 2.4 -0.1
v -0.7 2.2 0.2
v -0.7 2.2 -0.1
v -0.7 2.3 0.2
v -0.7 2.3 0.1
v -0.7 2.3 -0.1
v -0.9 2.1 0.2
v -0.9 2.1 -0.1
v -0.9 2.4 0.2
v -0.9 2.4 -0.1
v -0.6 2.2 0.2
v -0.6 2.4 0.2
v -0.7 2.1 0.2
v -0.7 2.2 0.2
v -0.7 2.3 0.2
v -0.8 2.2 0.2
v -0.8 2.3 0.2
v -0.9 2.1 0.2
v -0.9 2.4 0.2
v -0.6 2.3 0.1
v -0.6 2.4 0.1
v -0.7 2.3 0.1
v -0.8 2.3 0.1
v -0.8 2.4 0.1
v -0.6 2.2 -0.1
v -0.6 2.3 -0.1
v -0.7 2.1 -0.1
v -0.7 2.2 -0.1
v -0.7 2.3 -0.1
v -0.8 2.2 -0.1
v -0.8 2.4 -0.1
v -0.9 2.1 -0.1
v -0.9 2.4 -0.1
v -0.7 2.1 0.2
v -0.9 2.1 0.2
v -0.7 2.1 -0.1
v -0.9 2.1 -0.1
v -0.6 2.2 0.2
v -0.7 2.2 0.2
v -0.6 2.2 -0.1
v -0.7 2.2 -0.1
v -0.7 2.3 0.2
v -0.8 2.3 0.2
v -0.7 2.3 0.1
v -0.8 2.3 0.1
v -0.7 2.2 0.2
v -0.8 2.2 0.2
v -0.7 2.2 -0.1
v -0.8 2.2 -0.1
v -0.6 2.3 0.1
v -0.7 2.3 0.1
v -0.6 2.3 -0.1
v -0.7 2.3 -0.1
v -0.6 2.4 0.2
v -0.9 2.4 0.2
v -0.6 2.4 0.1
v -0.8 2.4 0.1
v -0.8 2.4 -0.1
v -0.9 2.4 -0.1

# faces
f 1/1/1 2/1/1 3/1/1
f 3/1/1 2/1/1 4/1/1
f 1/1/1 3/1/1 5/1/1
f 5/1/1 3/1/1 6/1/1
f 7/1/1 8/1/1 9/1/1
f 9/1/1 8/1/1 10/1/1
f 11/1/1 12/1/1 13/1/1
f 13/1/1 12/1/1 14/1/1
f 14/1/1 12/1/1 15/1/1
f 15/1/1 12/1/1 16/1/1
f 19/1/2 18/1/2 17/1/2
f 20/1/2 18/1/2 19/1/2
f 21/1/2 18/1/2 20/1/2
f 24/1/2 23/1/2 22/1/2
f 25/1/2 23/1/2 24/1/2
f 26/1/3 27/1/3 29/1/3
f 29/1/3 27/1/3 30/1/3
f 28/1/3 29/1/3 31/1/3
f 30/1/3 27/1/3 32/1/3
f 28/1/3 31/1/3 33/1/3
f 31/1/3 32/1/3 33/1/3
f 32/1/3 27/1/3 34/1/3
f 33/1/3 32/1/3 34/1/3
f 37/1/4 36/1/4 35/1/4
f 38/1/4 36/1/4 37/1/4
f 39/1/4 36/1/4 38/1/4
f 43/1/4 41/1/4 40/1/4
f 44/1/4 41/1/4 43/1/4
f 45/1/4 43/1/4 42/1/4
f 47/1/4 45/1/4 42/1/4
f 47/1/4 46/1/4 45/1/4
f 48/1/4 46/1/4 47/1/4
f 49/1/5 50/1/5 51/1/5
f 51/1/5 50/1/5 52/1/5
f 53/1/5 54/1/5 55/1/5
f 55/1/5 54/1/5 56/1/5
f 57/1/5 58/1/5 59/1/5
f 59/1/5 58/1/5 60/1/5
f 63/1/6 62/1/6 61/1/6
f 64/1/6 62/1/6 63/1/6
f 67/1/6 66/1/6 65/1/6
f 68/1/6 66/1/6 67/1/6
f 71/1/6 70/1/6 69/1/6
f 72/1/6 70/1/6 71/1/6
f 73/1/6 70/1/6 72/1/6
f 74/1/6 70/1/6 73/1/6
