# MagicaVoxel @ Ephtracy

# group
o 

# material
mtllib Character-2.mtl
usemtl palette

# normals
vn 1 0 0
vn -1 0 0
vn 0 0 1
vn 0 0 -1
vn 0 -1 0
vn 0 1 0

# texcoords
vt 0.00976563 0.5
vt 0.0527344 0.5
vt 0.986328 0.5

# verts
v -0.5 3.7 0.1
v -0.5 3.7 -0.1
v -0.5 3.9 0.2
v -0.5 3.9 0.1
v -0.5 3.9 -0.1
v -0.5 3.9 -0.2
v -0.5 4.3 0.2
v -0.5 4.3 0.1
v -0.5 4.3 -0.1
v -0.5 4.3 -0.2
v -0.5 4.4 0.1
v -0.5 4.4 -0.1
v -0.6 3.2 0.1
v -0.6 3.2 -0.1
v -0.6 3.6 0.2
v -0.6 3.6 0.1
v -0.6 3.6 -0.1
v -0.6 3.6 -0.2
v -0.6 3.7 0.2
v -0.6 3.7 0.1
v -0.6 3.7 -0.1
v -0.6 3.7 -0.2
v -0.6 3.9 0.2
v -0.6 3.9 0.1
v -0.6 3.9 -0.1
v -0.6 3.9 -0.2
v -0.6 4.2 0.3
v -0.6 4.2 0.2
v -0.6 4.2 -0.2
v -0.6 4.2 -0.3
v -0.6 4.3 0.3
v -0.6 4.3 0.2
v -0.6 4.3 0.1
v -0.6 4.3 -0.1
v -0.6 4.3 -0.2
v -0.6 4.3 -0.3
v -0.6 4.4 0.2
v -0.6 4.4 0.1
v -0.6 4.4 -0.1
v -0.6 4.4 -0.2
v -0.6 4.5 0.1
v -0.6 4.5 -0.1
v -0.7 3.2 0.2
v -0.7 3.2 0.1
v -0.7 3.2 -0.1
v -0.7 3.2 -0.2
v -0.7 3.6 0.2
v -0.7 3.6 0.1
v -0.7 3.6 -0.1
v -0.7 3.6 -0.2
v -0.7 3.7 0.3
v -0.7 3.7 0.2
v -0.7 3.7 -0.2
v -0.7 3.7 -0.3
v -0.7 3.8 0.3
v -0.7 3.8 0.2
v -0.7 3.8 -0.2
v -0.7 3.8 -0.3
v -0.7 4.1 0.3
v -0.7 4.1 0.2
v -0.7 4.1 -0.2
v -0.7 4.1 -0.3
v -0.7 4.2 0.3
v -0.7 4.2 0.2
v -0.7 4.2 -0.2
v -0.7 4.2 -0.3
v -0.8 3.8 0.3
v -0.8 3.8 0.2
v -0.8 3.8 -0.2
v -0.8 3.8 -0.3
v -0.8 3.9 0.3
v -0.8 3.9 0.2
v -0.8 3.9 -0.2
v -0.8 3.9 -0.3
v -0.8 4.1 0.3
v -0.8 4.1 0.2
v -0.8 4.1 -0.2
v -0.8 4.1 -0.3
v -0.9 3.1 0.1
v -0.9 3.1 -0.1
v -0.9 3.2 0.1
v -0.9 3.2 -0.1
v -0.7 4.2 0.3
v -0.7 4.2 0.2
v -0.7 4.2 -0.2
v -0.7 4.2 -0.3
v -0.7 4.3 0.3
v -0.7 4.3 0.2
v -0.7 4.3 0.1
v -0.7 4.3 -0.1
v -0.7 4.3 -0.2
v -0.7 4.3 -0.3
v -0.7 4.4 0.2
v -0.7 4.4 0.1
v -0.7 4.4 -0.1
v -0.7 4.4 -0.2
v -0.7 4.5 0.1
v -0.7 4.5 -0.1
v -0.8 3.7 0.3
v -0.8 3.7 0.2
v -0.8 3.7 -0.2
v -0.8 3.7 -0.3
v -0.8 3.8 0.3
v -0.8 3.8 0.2
v -0.8 3.8 -0.2
v -0.8 3.8 -0.3
v -0.8 4.1 0.3
v -0.8 4.1 0.2
v -0.8 4.1 -0.2
v -0.8 4.1 -0.3
v -0.8 4.2 0.3
v -0.8 4.2 0.2
v -0.8 4.2 0.1
v -0.8 4.2 -0.1
v -0.8 4.2 -0.2
v -0.8 4.2 -0.3
v -0.8 4.3 0.2
v -0.8 4.3 0.1
v -0.8 4.3 -0.1
v -0.8 4.3 -0.2
v -0.8 4.4 0.1
v -0.8 4.4 -0.1
v -0.9 3.2 0.2
v -0.9 3.2 0.1
v -0.9 3.2 -0.1
v -0.9 3.2 -0.2
v -0.9 3.7 0.2
v -0.9 3.7 0.1
v -0.9 3.7 -0.1
v -0.9 3.7 -0.2
v -0.9 4 0.3
v -0.9 4 0.2
v -0.9 4 -0.2
v -0.9 4 -0.3
v -0.9 4.1 0.3
v -0.9 4.1 0.2
v -0.9 4.1 0.1
v -0.9 4.1 -0.1
v -0.9 4.1 -0.2
v -0.9 4.1 -0.3
v -0.9 4.2 0.2
v -0.9 4.2 0.1
v -0.9 4.2 -0.1
v -0.9 4.2 -0.2
v -0.9 4.3 0.1
v -0.9 4.3 -0.1
v -1 3.1 0.1
v -1 3.1 -0.1
v -1 3.7 0.2
v -1 3.7 0.1
v -1 3.7 -0.1
v -1 3.7 -0.2
v -1 3.8 0.3
v -1 3.8 0.2
v -1 3.8 -0.2
v -1 3.8 -0.3
v -1 3.9 0.3
v -1 3.9 0.2
v -1 3.9 0.1
v -1 3.9 -0.1
v -1 3.9 -0.2
v -1 3.9 -0.3
v -1 4 0.3
v -1 4 0.2
v -1 4 0.1
v -1 4 -0.1
v -1 4 -0.2
v -1 4 -0.3
v -1 4.1 0.2
v -1 4.1 0.1
v -1 4.1 -0.1
v -1 4.1 -0.2
v -1 4.2 0.1
v -1 4.2 -0.1
v -1.1 3.7 0.1
v -1.1 3.7 -0.1
v -1.1 3.9 0.1
v -1.1 3.9 -0.1
v -0.6 4.2 0.3
v -0.6 4.3 0.3
v -0.7 3.7 0.3
v -0.7 3.8 0.3
v -0.7 4.1 0.3
v -0.7 4.2 0.3
v -0.7 4.3 0.3
v -0.8 3.7 0.3
v -0.8 3.8 0.3
v -0.8 3.9 0.3
v -0.8 4.1 0.3
v -0.8 4.2 0.3
v -0.9 3.8 0.3
v -0.9 3.9 0.3
v -0.9 4 0.3
v -0.9 4.1 0.3
v -1 3.8 0.3
v -1 3.9 0.3
v -1 4 0.3
v -0.5 3.9 0.2
v -0.5 4.3 0.2
v -0.6 3.6 0.2
v -0.6 3.7 0.2
v -0.6 3.9 0.2
v -0.6 4.2 0.2
v -0.6 4.3 0.2
v -0.6 4.4 0.2
v -0.7 3.2 0.2
v -0.7 3.6 0.2
v -0.7 3.7 0.2
v -0.7 3.8 0.2
v -0.7 4.1 0.2
v -0.7 4.2 0.2
v -0.7 4.3 0.2
v -0.7 4.4 0.2
v -0.8 3.7 0.2
v -0.8 3.8 0.2
v -0.8 3.9 0.2
v -0.8 4.1 0.2
v -0.8 4.2 0.2
v -0.8 4.3 0.2
v -0.9 3.2 0.2
v -0.9 3.7 0.2
v -0.9 3.8 0.2
v -0.9 4 0.2
v -0.9 4.1 0.2
v -0.9 4.2 0.2
v -1 3.7 0.2
v -1 3.8 0.2
v -1 4 0.2
v -1 4.1 0.2
v -0.5 3.7 0.1
v -0.5 3.9 0.1
v -0.5 4.3 0.1
v -0.5 4.4 0.1
v -0.6 3.2 0.1
v -0.6 3.6 0.1
v -0.6 3.7 0.1
v -0.6 3.9 0.1
v -0.6 4.3 0.1
v -0.6 4.4 0.1
v -0.6 4.5 0.1
v -0.7 3.2 0.1
v -0.7 3.6 0.1
v -0.7 4.3 0.1
v -0.7 4.4 0.1
v -0.7 4.5 0.1
v -0.8 4.2 0.1
v -0.8 4.3 0.1
v -0.8 4.4 0.1
v -0.9 3.1 0.1
v -0.9 3.2 0.1
v -0.9 3.7 0.1
v -0.9 4.1 0.1
v -0.9 4.2 0.1
v -0.9 4.3 0.1
v -1 3.1 0.1
v -1 3.7 0.1
v -1 3.9 0.1
v -1 4.1 0.1
v -1 4.2 0.1
v -1.1 3.7 0.1
v -1.1 3.9 0.1
v -0.5 3.7 -0.1
v -0.5 3.9 -0.1
v -0.5 4.3 -0.1
v -0.5 4.4 -0.1
v -0.6 3.2 -0.1
v -0.6 3.6 -0.1
v -0.6 3.7 -0.1
v -0.6 3.9 -0.1
v -0.6 4.3 -0.1
v -0.6 4.4 -0.1
v -0.6 4.5 -0.1
v -0.7 3.2 -0.1
v -0.7 3.6 -0.1
v -0.7 4.3 -0.1
v -0.7 4.4 -0.1
v -0.7 4.5 -0.1
v -0.8 4.2 -0.1
v -0.8 4.3 -0.1
v -0.8 4.4 -0.1
v -0.9 3.1 -0.1
v -0.9 3.2 -0.1
v -0.9 3.7 -0.1
v -0.9 4.1 -0.1
v -0.9 4.2 -0.1
v -0.9 4.3 -0.1
v -1 3.1 -0.1
v -1 3.7 -0.1
v -1 3.9 -0.1
v -1 4.1 -0.1
v -1 4.2 -0.1
v -1.1 3.7 -0.1
v -1.1 3.9 -0.1
v -0.5 3.9 -0.2
v -0.5 4.3 -0.2
v -0.6 3.6 -0.2
v -0.6 3.7 -0.2
v -0.6 3.9 -0.2
v -0.6 4.2 -0.2
v -0.6 4.3 -0.2
v -0.6 4.4 -0.2
v -0.7 3.2 -0.2
v -0.7 3.6 -0.2
v -0.7 3.7 -0.2
v -0.7 3.8 -0.2
v -0.7 4.1 -0.2
v -0.7 4.2 -0.2
v -0.7 4.3 -0.2
v -0.7 4.4 -0.2
v -0.8 3.7 -0.2
v -0.8 3.8 -0.2
v -0.8 3.9 -0.2
v -0.8 4.1 -0.2
v -0.8 4.2 -0.2
v -0.8 4.3 -0.2
v -0.9 3.2 -0.2
v -0.9 3.7 -0.2
v -0.9 3.8 -0.2
v -0.9 4 -0.2
v -0.9 4.1 -0.2
v -0.9 4.2 -0.2
v -1 3.7 -0.2
v -1 3.8 -0.2
v -1 4 -0.2
v -1 4.1 -0.2
v -0.6 4.2 -0.3
v -0.6 4.3 -0.3
v -0.7 3.7 -0.3
v -0.7 3.8 -0.3
v -0.7 4.1 -0.3
v -0.7 4.2 -0.3
v -0.7 4.3 -0.3
v -0.8 3.7 -0.3
v -0.8 3.8 -0.3
v -0.8 3.9 -0.3
v -0.8 4.1 -0.3
v -0.8 4.2 -0.3
v -0.9 3.8 -0.3
v -0.9 3.9 -0.3
v -0.9 4 -0.3
v -0.9 4.1 -0.3
v -1 3.8 -0.3
v -1 3.9 -0.3
v -1 4 -0.3
v -0.9 3.1 0.1
v -1 3.1 0.1
v -0.9 3.1 -0.1
v -1 3.1 -0.1
v -0.7 3.2 0.2
v -0.9 3.2 0.2
v -0.6 3.2 0.1
v -0.7 3.2 0.1
v -0.9 3.2 0.1
v -0.6 3.2 -0.1
v -0.7 3.2 -0.1
v -0.9 3.2 -0.1
v -0.7 3.2 -0.2
v -0.9 3.2 -0.2
v -0.6 3.6 0.2
v -0.7 3.6 0.2
v -0.6 3.6 0.1
v -0.7 3.6 0.1
v -0.6 3.6 -0.1
v -0.7 3.6 -0.1
v -0.6 3.6 -0.2
v -0.7 3.6 -0.2
v -0.7 3.7 0.3
v -0.8 3.7 0.3
v -0.7 3.7 0.2
v -0.8 3.7 0.2
v -0.9 3.7 0.2
v -1 3.7 0.2
v -0.5 3.7 0.1
v -0.6 3.7 0.1
v -0.9 3.7 0.1
v -1 3.7 0.1
v -1.1 3.7 0.1
v -0.5 3.7 -0.1
v -0.6 3.7 -0.1
v -0.9 3.7 -0.1
v -1 3.7 -0.1
v -1.1 3.7 -0.1
v -0.7 3.7 -0.2
v -0.8 3.7 -0.2
v -0.9 3.7 -0.2
v -1 3.7 -0.2
v -0.7 3.7 -0.3
v -0.8 3.7 -0.3
v -0.8 3.8 0.3
v -0.9 3.8 0.3
v -1 3.8 0.3
v -0.8 3.8 0.2
v -0.9 3.8 0.2
v -1 3.8 0.2
v -0.8 3.8 -0.2
v -0.9 3.8 -0.2
v -1 3.8 -0.2
v -0.8 3.8 -0.3
v -0.9 3.8 -0.3
v -1 3.8 -0.3
v -0.5 3.9 0.2
v -0.6 3.9 0.2
v -0.5 3.9 0.1
v -0.6 3.9 0.1
v -0.5 3.9 -0.1
v -0.6 3.9 -0.1
v -0.5 3.9 -0.2
v -0.6 3.9 -0.2
v -0.7 4.1 0.3
v -0.8 4.1 0.3
v -0.7 4.1 0.2
v -0.8 4.1 0.2
v -0.7 4.1 -0.2
v -0.8 4.1 -0.2
v -0.7 4.1 -0.3
v -0.8 4.1 -0.3
v -0.6 4.2 0.3
v -0.7 4.2 0.3
v -0.6 4.2 0.2
v -0.7 4.2 0.2
v -0.6 4.2 -0.2
v -0.7 4.2 -0.2
v -0.6 4.2 -0.3
v -0.7 4.2 -0.3
v -0.7 3.8 0.3
v -0.8 3.8 0.3
v -0.7 3.8 0.2
v -0.8 3.8 0.2
v -0.7 3.8 -0.2
v -0.8 3.8 -0.2
v -0.7 3.8 -0.3
v -0.8 3.8 -0.3
v -1 3.9 0.1
v -1.1 3.9 0.1
v -1 3.9 -0.1
v -1.1 3.9 -0.1
v -0.9 4 0.3
v -1 4 0.3
v -0.9 4 0.2
v -1 4 0.2
v -0.9 4 -0.2
v -1 4 -0.2
v -0.9 4 -0.3
v -1 4 -0.3
v -0.8 4.1 0.3
v -0.9 4.1 0.3
v -0.8 4.1 0.2
v -0.9 4.1 0.2
v -1 4.1 0.2
v -0.9 4.1 0.1
v -1 4.1 0.1
v -0.9 4.1 -0.1
v -1 4.1 -0.1
v -0.8 4.1 -0.2
v -0.9 4.1 -0.2
v -1 4.1 -0.2
v -0.8 4.1 -0.3
v -0.9 4.1 -0.3
v -0.7 4.2 0.3
v -0.8 4.2 0.3
v -0.7 4.2 0.2
v -0.8 4.2 0.2
v -0.9 4.2 0.2
v -0.8 4.2 0.1
v -0.9 4.2 0.1
v -1 4.2 0.1
v -0.8 4.2 -0.1
v -0.9 4.2 -0.1
v -1 4.2 -0.1
v -0.7 4.2 -0.2
v -0.8 4.2 -0.2
v -0.9 4.2 -0.2
v -0.7 4.2 -0.3
v -0.8 4.2 -0.3
v -0.6 4.3 0.3
v -0.7 4.3 0.3
v -0.5 4.3 0.2
v -0.6 4.3 0.2
v -0.7 4.3 0.2
v -0.8 4.3 0.2
v -0.5 4.3 0.1
v -0.6 4.3 0.1
v -0.7 4.3 0.1
v -0.8 4.3 0.1
v -0.9 4.3 0.1
v -0.5 4.3 -0.1
v -0.6 4.3 -0.1
v -0.7 4.3 -0.1
v -0.8 4.3 -0.1
v -0.9 4.3 -0.1
v -0.5 4.3 -0.2
v -0.6 4.3 -0.2
v -0.7 4.3 -0.2
v -0.8 4.3 -0.2
v -0.6 4.3 -0.3
v -0.7 4.3 -0.3
v -0.6 4.4 0.2
v -0.7 4.4 0.2
v -0.5 4.4 0.1
v -0.6 4.4 0.1
v -0.7 4.4 0.1
v -0.8 4.4 0.1
v -0.5 4.4 -0.1
v -0.6 4.4 -0.1
v -0.7 4.4 -0.1
v -0.8 4.4 -0.1
v -0.6 4.4 -0.2
v -0.7 4.4 -0.2
v -0.6 4.5 0.1
v -0.7 4.5 0.1
v -0.6 4.5 -0.1
v -0.7 4.5 -0.1

# faces
f 1/3/1 2/3/1 4/3/1
f 4/3/1 2/3/1 5/3/1
f 3/3/1 4/3/1 7/3/1
f 5/3/1 6/3/1 7/3/1
f 4/3/1 5/3/1 7/3/1
f 7/3/1 6/3/1 8/3/1
f 8/3/1 6/3/1 9/3/1
f 9/3/1 6/3/1 10/3/1
f 8/3/1 9/3/1 11/3/1
f 11/3/1 9/3/1 12/3/1
f 13/2/1 14/2/1 16/2/1
f 16/2/1 14/2/1 17/2/1
f 15/3/1 16/3/1 19/3/1
f 16/2/1 17/2/1 20/2/1
f 19/3/1 16/3/1 20/3/1
f 17/3/1 18/3/1 21/3/1
f 20/2/1 17/2/1 21/2/1
f 21/3/1 18/3/1 22/3/1
f 19/2/1 20/2/1 23/2/1
f 23/2/1 20/2/1 24/2/1
f 21/2/1 22/2/1 25/2/1
f 25/2/1 22/2/1 26/2/1
f 27/1/1 28/1/1 31/1/1
f 31/1/1 28/1/1 32/1/1
f 29/1/1 30/1/1 35/1/1
f 35/1/1 30/1/1 36/1/1
f 32/1/1 33/1/1 37/1/1
f 37/1/1 33/1/1 38/1/1
f 34/1/1 35/1/1 39/1/1
f 39/1/1 35/1/1 40/1/1
f 38/1/1 39/1/1 41/1/1
f 41/1/1 39/1/1 42/1/1
f 43/2/1 44/2/1 47/2/1
f 47/2/1 44/2/1 48/2/1
f 45/2/1 46/2/1 49/2/1
f 49/2/1 46/2/1 50/2/1
f 51/3/1 52/3/1 55/3/1
f 55/3/1 52/3/1 56/3/1
f 53/3/1 54/3/1 57/3/1
f 57/3/1 54/3/1 58/3/1
f 59/1/1 60/1/1 63/1/1
f 63/1/1 60/1/1 64/1/1
f 61/1/1 62/1/1 65/1/1
f 65/1/1 62/1/1 66/1/1
f 67/3/1 68/3/1 71/3/1
f 71/3/1 68/3/1 72/3/1
f 69/3/1 70/3/1 73/3/1
f 73/3/1 70/3/1 74/3/1
f 71/1/1 72/1/1 75/1/1
f 75/1/1 72/1/1 76/1/1
f 73/1/1 74/1/1 77/1/1
f 77/1/1 74/1/1 78/1/1
f 79/2/1 80/2/1 81/2/1
f 81/2/1 80/2/1 82/2/1
f 87/1/2 84/1/2 83/1/2
f 88/1/2 84/1/2 87/1/2
f 91/1/2 86/1/2 85/1/2
f 92/1/2 86/1/2 91/1/2
f 93/1/2 89/1/2 88/1/2
f 94/1/2 89/1/2 93/1/2
f 95/1/2 91/1/2 90/1/2
f 96/1/2 91/1/2 95/1/2
f 97/1/2 95/1/2 94/1/2
f 98/1/2 95/1/2 97/1/2
f 103/3/2 100/3/2 99/3/2
f 104/3/2 100/3/2 103/3/2
f 105/3/2 102/3/2 101/3/2
f 106/3/2 102/3/2 105/3/2
f 111/1/2 108/1/2 107/1/2
f 112/1/2 108/1/2 111/1/2
f 115/1/2 110/1/2 109/1/2
f 116/1/2 110/1/2 115/1/2
f 117/1/2 113/1/2 112/1/2
f 118/1/2 113/1/2 117/1/2
f 119/1/2 115/1/2 114/1/2
f 120/1/2 115/1/2 119/1/2
f 121/1/2 119/1/2 118/1/2
f 122/1/2 119/1/2 121/1/2
f 127/2/2 124/2/2 123/2/2
f 128/2/2 124/2/2 127/2/2
f 129/2/2 126/2/2 125/2/2
f 130/2/2 126/2/2 129/2/2
f 135/1/2 132/1/2 131/1/2
f 136/1/2 132/1/2 135/1/2
f 139/1/2 134/1/2 133/1/2
f 140/1/2 134/1/2 139/1/2
f 141/1/2 137/1/2 136/1/2
f 142/1/2 137/1/2 141/1/2
f 143/1/2 139/1/2 138/1/2
f 144/1/2 139/1/2 143/1/2
f 145/1/2 143/1/2 142/1/2
f 146/1/2 143/1/2 145/1/2
f 150/2/2 148/2/2 147/2/2
f 151/2/2 148/2/2 150/2/2
f 154/1/2 150/1/2 149/1/2
f 155/1/2 152/1/2 151/1/2
f 157/1/2 154/1/2 153/1/2
f 158/1/2 150/1/2 154/1/2
f 158/1/2 154/1/2 157/1/2
f 159/1/2 150/1/2 158/1/2
f 160/1/2 156/1/2 155/1/2
f 160/1/2 155/1/2 151/1/2
f 161/1/2 156/1/2 160/1/2
f 162/1/2 156/1/2 161/1/2
f 163/3/2 158/3/2 157/3/2
f 164/1/2 159/1/2 158/1/2
f 164/3/2 158/3/2 163/3/2
f 164/1/2 160/1/2 159/1/2
f 164/1/2 161/1/2 160/1/2
f 165/1/2 161/1/2 164/1/2
f 166/1/2 161/1/2 165/1/2
f 167/3/2 162/3/2 161/3/2
f 167/1/2 161/1/2 166/1/2
f 168/3/2 162/3/2 167/3/2
f 169/3/2 165/3/2 164/3/2
f 170/1/2 166/1/2 165/1/2
f 170/3/2 165/3/2 169/3/2
f 171/3/2 167/3/2 166/3/2
f 171/1/2 166/1/2 170/1/2
f 172/3/2 167/3/2 171/3/2
f 173/3/2 171/3/2 170/3/2
f 174/3/2 171/3/2 173/3/2
f 177/1/2 176/1/2 175/1/2
f 178/1/2 176/1/2 177/1/2
f 179/1/3 180/1/3 184/1/3
f 184/1/3 180/1/3 185/1/3
f 181/3/3 182/3/3 186/3/3
f 186/3/3 182/3/3 187/3/3
f 183/1/3 184/1/3 189/1/3
f 189/1/3 184/1/3 190/1/3
f 187/3/3 188/3/3 191/3/3
f 188/1/3 189/1/3 192/1/3
f 191/3/3 188/3/3 192/3/3
f 192/1/3 189/1/3 193/1/3
f 193/1/3 189/1/3 194/1/3
f 191/1/3 192/1/3 195/1/3
f 192/3/3 193/3/3 196/3/3
f 195/1/3 192/1/3 196/1/3
f 196/3/3 193/3/3 197/3/3
f 198/3/3 199/3/3 202/3/3
f 202/3/3 199/3/3 203/3/3
f 203/3/3 199/3/3 204/3/3
f 200/3/3 201/3/3 207/3/3
f 201/2/3 202/2/3 208/2/3
f 202/2/3 203/2/3 208/2/3
f 207/3/3 201/3/3 208/3/3
f 208/2/3 203/2/3 209/2/3
f 209/2/3 203/2/3 210/2/3
f 210/2/3 203/2/3 211/2/3
f 204/1/3 205/1/3 212/1/3
f 212/1/3 205/1/3 213/1/3
f 206/2/3 207/2/3 214/2/3
f 207/2/3 208/2/3 214/2/3
f 209/2/3 210/2/3 215/2/3
f 215/2/3 210/2/3 216/2/3
f 216/2/3 210/2/3 217/2/3
f 211/1/3 212/1/3 218/1/3
f 218/1/3 212/1/3 219/1/3
f 206/2/3 214/2/3 220/2/3
f 214/2/3 215/2/3 220/2/3
f 220/2/3 215/2/3 221/2/3
f 221/2/3 215/2/3 222/2/3
f 217/1/3 218/1/3 224/1/3
f 224/1/3 218/1/3 225/1/3
f 221/1/3 222/1/3 226/1/3
f 226/1/3 222/1/3 227/1/3
f 223/3/3 224/3/3 228/3/3
f 228/3/3 224/3/3 229/3/3
f 230/3/3 231/3/3 236/3/3
f 236/3/3 231/3/3 237/3/3
f 232/3/3 233/3/3 238/3/3
f 238/3/3 233/3/3 239/3/3
f 234/2/3 235/2/3 241/2/3
f 241/2/3 235/2/3 242/2/3
f 239/1/3 240/1/3 244/1/3
f 244/1/3 240/1/3 245/1/3
f 243/1/3 244/1/3 247/1/3
f 247/1/3 244/1/3 248/1/3
f 246/1/3 247/1/3 253/1/3
f 253/1/3 247/1/3 254/1/3
f 250/2/3 251/2/3 255/2/3
f 249/2/3 250/2/3 255/2/3
f 255/2/3 251/2/3 256/2/3
f 252/3/3 253/3/3 258/3/3
f 258/3/3 253/3/3 259/3/3
f 256/1/3 257/1/3 260/1/3
f 260/1/3 257/1/3 261/1/3
f 268/3/4 263/3/4 262/3/4
f 269/3/4 263/3/4 268/3/4
f 270/3/4 265/3/4 264/3/4
f 271/3/4 265/3/4 270/3/4
f 273/2/4 267/2/4 266/2/4
f 274/2/4 267/2/4 273/2/4
f 276/1/4 272/1/4 271/1/4
f 277/1/4 272/1/4 276/1/4
f 279/1/4 276/1/4 275/1/4
f 280/1/4 276/1/4 279/1/4
f 285/1/4 279/1/4 278/1/4
f 286/1/4 279/1/4 285/1/4
f 287/2/4 283/2/4 282/2/4
f 287/2/4 282/2/4 281/2/4
f 288/2/4 283/2/4 287/2/4
f 290/3/4 285/3/4 284/3/4
f 291/3/4 285/3/4 290/3/4
f 292/1/4 289/1/4 288/1/4
f 293/1/4 289/1/4 292/1/4
f 298/3/4 295/3/4 294/3/4
f 299/3/4 295/3/4 298/3/4
f 300/3/4 295/3/4 299/3/4
f 303/3/4 297/3/4 296/3/4
f 304/2/4 298/2/4 297/2/4
f 304/2/4 299/2/4 298/2/4
f 304/3/4 297/3/4 303/3/4
f 305/2/4 299/2/4 304/2/4
f 306/2/4 299/2/4 305/2/4
f 307/2/4 299/2/4 306/2/4
f 308/1/4 301/1/4 300/1/4
f 309/1/4 301/1/4 308/1/4
f 310/2/4 303/2/4 302/2/4
f 310/2/4 304/2/4 303/2/4
f 311/2/4 306/2/4 305/2/4
f 312/2/4 306/2/4 311/2/4
f 313/2/4 306/2/4 312/2/4
f 314/1/4 308/1/4 307/1/4
f 315/1/4 308/1/4 314/1/4
f 316/2/4 310/2/4 302/2/4
f 316/2/4 311/2/4 310/2/4
f 317/2/4 311/2/4 316/2/4
f 318/2/4 311/2/4 317/2/4
f 320/1/4 314/1/4 313/1/4
f 321/1/4 314/1/4 320/1/4
f 322/1/4 318/1/4 317/1/4
f 323/1/4 318/1/4 322/1/4
f 324/3/4 320/3/4 319/3/4
f 325/3/4 320/3/4 324/3/4
f 331/1/4 327/1/4 326/1/4
f 332/1/4 327/1/4 331/1/4
f 333/3/4 329/3/4 328/3/4
f 334/3/4 329/3/4 333/3/4
f 336/1/4 331/1/4 330/1/4
f 337/1/4 331/1/4 336/1/4
f 338/3/4 335/3/4 334/3/4
f 339/1/4 336/1/4 335/1/4
f 339/3/4 335/3/4 338/3/4
f 340/1/4 336/1/4 339/1/4
f 341/1/4 336/1/4 340/1/4
f 342/1/4 339/1/4 338/1/4
f 343/3/4 340/3/4 339/3/4
f 343/1/4 339/1/4 342/1/4
f 344/3/4 340/3/4 343/3/4
f 345/2/5 346/2/5 347/2/5
f 347/2/5 346/2/5 348/2/5
f 349/2/5 350/2/5 352/2/5
f 352/2/5 350/2/5 353/2/5
f 351/2/5 352/2/5 354/2/5
f 352/2/5 353/2/5 354/2/5
f 354/2/5 353/2/5 355/2/5
f 355/2/5 353/2/5 356/2/5
f 355/2/5 356/2/5 357/2/5
f 357/2/5 356/2/5 358/2/5
f 359/3/5 360/3/5 361/3/5
f 361/3/5 360/3/5 362/3/5
f 363/3/5 364/3/5 365/3/5
f 365/3/5 364/3/5 366/3/5
f 367/3/5 368/3/5 369/3/5
f 369/3/5 368/3/5 370/3/5
f 371/1/5 372/1/5 375/1/5
f 375/1/5 372/1/5 376/1/5
f 373/3/5 374/3/5 378/3/5
f 378/3/5 374/3/5 379/3/5
f 376/1/5 377/1/5 381/1/5
f 381/1/5 377/1/5 382/1/5
f 380/1/5 381/1/5 385/1/5
f 385/1/5 381/1/5 386/1/5
f 383/3/5 384/3/5 387/3/5
f 387/3/5 384/3/5 388/3/5
f 389/3/5 390/3/5 392/3/5
f 390/1/5 391/1/5 393/1/5
f 392/3/5 390/3/5 393/3/5
f 393/1/5 391/1/5 394/1/5
f 395/3/5 396/3/5 398/3/5
f 396/1/5 397/1/5 399/1/5
f 398/3/5 396/3/5 399/3/5
f 399/1/5 397/1/5 400/1/5
f 401/3/5 402/3/5 403/3/5
f 403/3/5 402/3/5 404/3/5
f 405/3/5 406/3/5 407/3/5
f 407/3/5 406/3/5 408/3/5
f 409/1/5 410/1/5 411/1/5
f 411/1/5 410/1/5 412/1/5
f 413/1/5 414/1/5 415/1/5
f 415/1/5 414/1/5 416/1/5
f 417/1/5 418/1/5 419/1/5
f 419/1/5 418/1/5 420/1/5
f 421/1/5 422/1/5 423/1/5
f 423/1/5 422/1/5 424/1/5
f 427/3/6 426/3/6 425/3/6
f 428/3/6 426/3/6 427/3/6
f 431/3/6 430/3/6 429/3/6
f 432/3/6 430/3/6 431/3/6
f 435/1/6 434/1/6 433/1/6
f 436/1/6 434/1/6 435/1/6
f 439/3/6 438/3/6 437/3/6
f 440/3/6 438/3/6 439/3/6
f 443/3/6 442/3/6 441/3/6
f 444/3/6 442/3/6 443/3/6
f 447/1/6 446/1/6 445/1/6
f 448/1/6 446/1/6 447/1/6
f 450/3/6 449/3/6 448/3/6
f 451/3/6 449/3/6 450/3/6
f 455/3/6 453/3/6 452/3/6
f 456/3/6 453/3/6 455/3/6
f 457/1/6 455/1/6 454/1/6
f 458/1/6 455/1/6 457/1/6
f 461/1/6 460/1/6 459/1/6
f 462/1/6 460/1/6 461/1/6
f 464/1/6 463/1/6 462/1/6
f 465/1/6 463/1/6 464/1/6
f 468/3/6 466/3/6 465/3/6
f 469/3/6 466/3/6 468/3/6
f 471/1/6 468/1/6 467/1/6
f 472/1/6 468/1/6 471/1/6
f 473/1/6 471/1/6 470/1/6
f 474/1/6 471/1/6 473/1/6
f 478/1/6 476/1/6 475/1/6
f 479/1/6 476/1/6 478/1/6
f 481/3/6 478/3/6 477/3/6
f 482/3/6 478/3/6 481/3/6
f 483/1/6 480/1/6 479/1/6
f 484/1/6 480/1/6 483/1/6
f 489/1/6 485/1/6 484/1/6
f 490/1/6 485/1/6 489/1/6
f 491/3/6 487/3/6 486/3/6
f 492/3/6 487/3/6 491/3/6
f 493/1/6 489/1/6 488/1/6
f 494/1/6 489/1/6 493/1/6
f 495/1/6 493/1/6 492/1/6
f 496/1/6 493/1/6 495/1/6
f 500/1/6 498/1/6 497/1/6
f 501/1/6 498/1/6 500/1/6
f 503/3/6 500/3/6 499/3/6
f 504/3/6 500/3/6 503/3/6
f 505/1/6 502/1/6 501/1/6
f 506/1/6 502/1/6 505/1/6
f 507/1/6 505/1/6 504/1/6
f 508/1/6 505/1/6 507/1/6
f 511/1/6 510/1/6 509/1/6
f 512/1/6 510/1/6 511/1/6
